<?xml version="1.0" encoding="iso-8859-1"?>
<!-- Generator: Adobe Illustrator 17.0.0, SVG Export Plug-In . SVG Version: 6.00 Build 0)  -->
<!DOCTYPE svg PUBLIC "-//W3C//DTD SVG 1.1//EN" "http://www.w3.org/Graphics/SVG/1.1/DTD/svg11.dtd">
<svg version="1.1" id="Isolation_Mode" xmlns="http://www.w3.org/2000/svg" xmlns:xlink="http://www.w3.org/1999/xlink" x="0px"
	 y="0px" width="506px" height="505px" viewBox="0 0 506 505" style="enable-background:new 0 0 506 505;" xml:space="preserve">
<g>
	<path style="fill-rule:evenodd;clip-rule:evenodd;fill:#B5FFF6;" d="M251.549,475.469c124.605,0,226.233-101.629,226.233-226.234
		c0-124.605-101.628-226.232-226.233-226.232c-124.604,0-226.232,101.627-226.232,226.232
		C25.316,373.84,126.944,475.469,251.549,475.469z"/>
	<g>
		<path style="fill-rule:evenodd;clip-rule:evenodd;fill:#FFFFFF;" d="M351.46,199.903c9.042,0,16.417-5.924,16.417-13.188
			c0-7.263-7.375-13.187-16.417-13.187s-16.416,5.924-16.416,13.187C335.044,193.979,342.418,199.903,351.46,199.903z"/>
		<path style="fill-rule:evenodd;clip-rule:evenodd;fill:#FFFFFF;" d="M333.242,191.698c9.042,0,16.416-5.924,16.416-13.188
			c0-7.263-7.374-13.187-16.416-13.187s-16.417,5.924-16.417,13.187C316.825,185.774,324.2,191.698,333.242,191.698z"/>
		<path style="fill-rule:evenodd;clip-rule:evenodd;fill:#FFFFFF;" d="M312.409,196.669c9.042,0,16.417-5.924,16.417-13.188
			c0-7.263-7.375-13.187-16.417-13.187c-9.042,0-16.416,5.924-16.416,13.187C295.993,190.745,303.367,196.669,312.409,196.669z"/>
		<path style="fill-rule:evenodd;clip-rule:evenodd;fill:#FFFFFF;" d="M331.232,204.359c9.041,0,16.416-5.924,16.416-13.188
			c0-7.263-7.375-13.187-16.416-13.187c-9.043,0-16.417,5.924-16.417,13.187C314.815,198.435,322.189,204.359,331.232,204.359z"/>
	</g>
	<g>
		<path style="fill-rule:evenodd;clip-rule:evenodd;fill:#FFFFFF;" d="M273.936,78.304c8.902,0,16.163-5.832,16.163-12.983
			c0-7.151-7.261-12.983-16.163-12.983c-8.902,0-16.163,5.832-16.163,12.983C257.772,72.472,265.033,78.304,273.936,78.304z"/>
		<path style="fill-rule:evenodd;clip-rule:evenodd;fill:#FFFFFF;" d="M292.051,67.794c8.902,0,16.163-5.832,16.163-12.983
			c0-7.15-7.261-12.983-16.163-12.983c-8.902,0-16.163,5.833-16.163,12.983C275.888,61.962,283.148,67.794,292.051,67.794z"/>
		<path style="fill-rule:evenodd;clip-rule:evenodd;fill:#FFFFFF;" d="M315.368,75.743c8.901,0,16.163-5.832,16.163-12.983
			c0-7.15-7.262-12.983-16.163-12.983c-8.902,0-16.163,5.833-16.163,12.983C299.205,69.911,306.466,75.743,315.368,75.743z"/>
		<path style="fill-rule:evenodd;clip-rule:evenodd;fill:#FFFFFF;" d="M297.286,87.22c8.902,0,16.163-5.833,16.163-12.983
			c0-7.151-7.261-12.983-16.163-12.983c-8.901,0-16.162,5.832-16.162,12.983C281.124,81.387,288.385,87.22,297.286,87.22z"/>
	</g>
	<g>
		<path style="fill-rule:evenodd;clip-rule:evenodd;fill:#FFFFFF;" d="M156.373,154.591c8.729,0,15.849-5.719,15.849-12.731
			c0-7.012-7.12-12.73-15.849-12.73c-8.73,0-15.85,5.719-15.85,12.73C140.523,148.872,147.644,154.591,156.373,154.591z"/>
		<path style="fill-rule:evenodd;clip-rule:evenodd;fill:#FFFFFF;" d="M138.784,140.974c8.73,0,15.85-5.719,15.85-12.731
			c0-7.012-7.12-12.731-15.85-12.731c-8.729,0-15.849,5.72-15.849,12.731C122.936,135.255,130.055,140.974,138.784,140.974z"/>
		<path style="fill-rule:evenodd;clip-rule:evenodd;fill:#FFFFFF;" d="M119.967,154.575c8.729,0,15.849-5.719,15.849-12.731
			c0-7.012-7.12-12.731-15.849-12.731c-8.729,0-15.85,5.72-15.85,12.731C104.117,148.856,111.237,154.575,119.967,154.575z"/>
		<path style="fill-rule:evenodd;clip-rule:evenodd;fill:#FFFFFF;" d="M138.656,161.223c8.729,0,15.849-5.719,15.849-12.732
			c0-7.012-7.12-12.73-15.849-12.73c-8.73,0-15.85,5.719-15.85,12.73C122.807,155.504,129.927,161.223,138.656,161.223z"/>
	</g>
	<path style="fill-rule:evenodd;clip-rule:evenodd;fill:#8F99A1;" d="M350.29,360.086L350.29,360.086
		c0.001-0.008,0.005-0.016,0.008-0.025C350.296,360.071,350.291,360.078,350.29,360.086z"/>
	<path style="fill-rule:evenodd;clip-rule:evenodd;fill:#8F99A1;" d="M286.739,360.086L286.739,360.086
		c0.011-0.031,0.022-0.068,0.038-0.117C286.762,360.018,286.749,360.055,286.739,360.086L286.739,360.086z"/>
	<g>
		<rect x="63.812" y="185.852" style="fill-rule:evenodd;clip-rule:evenodd;fill:#EBBB5B;" width="69.424" height="17.636"/>
		<rect x="84.312" y="173.032" style="fill-rule:evenodd;clip-rule:evenodd;fill:#EBBB5B;" width="28.427" height="16.307"/>
		<rect x="57.79" y="201.39" style="fill-rule:evenodd;clip-rule:evenodd;fill:#FFD47F;" width="81.468" height="138.092"/>
		<path style="fill-rule:evenodd;clip-rule:evenodd;fill:#8F99A1;" d="M136.169,339.481L136.169,339.481
			c0.002-0.006,0.004-0.015,0.008-0.023C136.174,339.466,136.171,339.475,136.169,339.481z"/>
		<path style="fill-rule:evenodd;clip-rule:evenodd;fill:#8F99A1;" d="M72.271,339.481L72.271,339.481
			c0.011-0.029,0.022-0.066,0.039-0.111C72.293,339.416,72.281,339.452,72.271,339.481L72.271,339.481z"/>
		<g>
			<rect x="76.555" y="317.073" style="fill-rule:evenodd;clip-rule:evenodd;fill:#EBBB5B;" width="44.121" height="22.447"/>
			<rect x="64.193" y="299.779" style="fill-rule:evenodd;clip-rule:evenodd;fill:#FFF1CF;" width="18.911" height="11.973"/>
			<rect x="89.068" y="299.779" style="fill-rule:evenodd;clip-rule:evenodd;fill:#FFF1CF;" width="18.911" height="11.973"/>
			<rect x="113.944" y="299.779" style="fill-rule:evenodd;clip-rule:evenodd;fill:#FFF1CF;" width="18.91" height="11.973"/>
			<rect x="64.193" y="282.005" style="fill-rule:evenodd;clip-rule:evenodd;fill:#FFF1CF;" width="18.911" height="11.973"/>
			<rect x="89.068" y="282.005" style="fill-rule:evenodd;clip-rule:evenodd;fill:#FFF1CF;" width="18.911" height="11.973"/>
			<rect x="113.944" y="282.005" style="fill-rule:evenodd;clip-rule:evenodd;fill:#FFF1CF;" width="18.91" height="11.973"/>
			<rect x="64.193" y="264.229" style="fill-rule:evenodd;clip-rule:evenodd;fill:#FFF1CF;" width="18.911" height="11.973"/>
			<rect x="89.068" y="264.229" style="fill-rule:evenodd;clip-rule:evenodd;fill:#FFF1CF;" width="18.911" height="11.973"/>
			<rect x="113.944" y="264.229" style="fill-rule:evenodd;clip-rule:evenodd;fill:#FFF1CF;" width="18.91" height="11.973"/>
			<rect x="64.193" y="246.455" style="fill-rule:evenodd;clip-rule:evenodd;fill:#FFF1CF;" width="18.911" height="11.973"/>
			<rect x="89.068" y="246.455" style="fill-rule:evenodd;clip-rule:evenodd;fill:#FFF1CF;" width="18.911" height="11.973"/>
			<rect x="113.944" y="246.455" style="fill-rule:evenodd;clip-rule:evenodd;fill:#FFF1CF;" width="18.91" height="11.973"/>
			<rect x="64.193" y="228.681" style="fill-rule:evenodd;clip-rule:evenodd;fill:#FFF1CF;" width="18.911" height="11.973"/>
			<rect x="89.068" y="228.681" style="fill-rule:evenodd;clip-rule:evenodd;fill:#FFF1CF;" width="18.911" height="11.973"/>
			<rect x="113.944" y="228.681" style="fill-rule:evenodd;clip-rule:evenodd;fill:#FFF1CF;" width="18.91" height="11.973"/>
			<rect x="64.193" y="210.905" style="fill-rule:evenodd;clip-rule:evenodd;fill:#FFF1CF;" width="18.911" height="11.973"/>
			<rect x="89.068" y="210.905" style="fill-rule:evenodd;clip-rule:evenodd;fill:#FFF1CF;" width="18.911" height="11.973"/>
			<rect x="113.944" y="210.905" style="fill-rule:evenodd;clip-rule:evenodd;fill:#FFF1CF;" width="18.91" height="11.973"/>
			<rect x="69.982" y="189.391" style="fill-rule:evenodd;clip-rule:evenodd;fill:#FFD47F;" width="16.549" height="8.293"/>
			<rect x="90.25" y="189.391" style="fill-rule:evenodd;clip-rule:evenodd;fill:#FFD47F;" width="16.548" height="8.293"/>
			<rect x="110.518" y="189.391" style="fill-rule:evenodd;clip-rule:evenodd;fill:#FFD47F;" width="16.547" height="8.293"/>
			<rect x="90.25" y="177.559" style="fill-rule:evenodd;clip-rule:evenodd;fill:#FFD47F;" width="16.548" height="8.293"/>
		</g>
	</g>
	<g>
		<rect x="205.174" y="223.431" style="fill-rule:evenodd;clip-rule:evenodd;fill:#96D2E3;" width="64.623" height="116.119"/>
		<path style="fill-rule:evenodd;clip-rule:evenodd;fill:#368196;" d="M215.766,210.237c3.12-8.995,11.664-15.455,21.719-15.455
			c10.057,0,18.601,6.46,21.718,15.455h10.595v13.193h-64.623v-13.193H215.766z"/>
		<path style="fill-rule:evenodd;clip-rule:evenodd;fill:#CFEEF7;" d="M220.251,217.406c0-9.519,7.717-17.234,17.233-17.234
			c9.519,0,17.234,7.716,17.234,17.234H220.251z"/>
		<g>
			<rect x="224.397" y="319.851" style="fill-rule:evenodd;clip-rule:evenodd;fill:#368196;" width="26.175" height="19.672"/>
			<rect x="211.367" y="304.694" style="fill-rule:evenodd;clip-rule:evenodd;fill:#CFEEF7;" width="22.61" height="10.494"/>
			<rect x="242.511" y="304.694" style="fill-rule:evenodd;clip-rule:evenodd;fill:#CFEEF7;" width="22.609" height="10.494"/>
			<rect x="211.367" y="289.116" style="fill-rule:evenodd;clip-rule:evenodd;fill:#CFEEF7;" width="22.61" height="10.494"/>
			<rect x="242.511" y="289.116" style="fill-rule:evenodd;clip-rule:evenodd;fill:#CFEEF7;" width="22.609" height="10.494"/>
			<rect x="211.367" y="273.539" style="fill-rule:evenodd;clip-rule:evenodd;fill:#CFEEF7;" width="22.61" height="10.493"/>
			<rect x="242.511" y="273.539" style="fill-rule:evenodd;clip-rule:evenodd;fill:#CFEEF7;" width="22.609" height="10.493"/>
			<rect x="211.367" y="257.96" style="fill-rule:evenodd;clip-rule:evenodd;fill:#CFEEF7;" width="22.61" height="10.494"/>
			<rect x="242.511" y="257.96" style="fill-rule:evenodd;clip-rule:evenodd;fill:#CFEEF7;" width="22.609" height="10.494"/>
			<rect x="211.367" y="242.383" style="fill-rule:evenodd;clip-rule:evenodd;fill:#CFEEF7;" width="22.61" height="10.493"/>
			<rect x="242.511" y="242.383" style="fill-rule:evenodd;clip-rule:evenodd;fill:#CFEEF7;" width="22.609" height="10.493"/>
			<rect x="211.367" y="226.804" style="fill-rule:evenodd;clip-rule:evenodd;fill:#CFEEF7;" width="22.61" height="10.494"/>
			<rect x="242.511" y="226.804" style="fill-rule:evenodd;clip-rule:evenodd;fill:#CFEEF7;" width="22.609" height="10.494"/>
		</g>
	</g>
	<g>
		<rect x="362.29" y="170.599" style="fill-rule:evenodd;clip-rule:evenodd;fill:#ED9B4E;" width="72.361" height="19.386"/>
		<rect x="356.012" y="187.678" style="fill-rule:evenodd;clip-rule:evenodd;fill:#FFD47F;" width="84.919" height="151.801"/>
		<rect x="375.572" y="319.851" style="fill-rule:evenodd;clip-rule:evenodd;fill:#ED9B4E;" width="45.989" height="19.669"/>
		<g>
			<g>
				<rect x="362.688" y="298.806" style="fill-rule:evenodd;clip-rule:evenodd;fill:#FFF1CF;" width="19.711" height="16.383"/>
				<rect x="388.615" y="298.806" style="fill-rule:evenodd;clip-rule:evenodd;fill:#FFF1CF;" width="19.712" height="16.383"/>
				<rect x="414.544" y="298.806" style="fill-rule:evenodd;clip-rule:evenodd;fill:#FFF1CF;" width="19.712" height="16.383"/>
				<rect x="362.688" y="274.485" style="fill-rule:evenodd;clip-rule:evenodd;fill:#FFF1CF;" width="19.711" height="16.381"/>
				<rect x="388.615" y="274.485" style="fill-rule:evenodd;clip-rule:evenodd;fill:#FFF1CF;" width="19.712" height="16.381"/>
				<rect x="414.544" y="274.485" style="fill-rule:evenodd;clip-rule:evenodd;fill:#FFF1CF;" width="19.712" height="16.381"/>
				<rect x="362.688" y="250.164" style="fill-rule:evenodd;clip-rule:evenodd;fill:#FFF1CF;" width="19.711" height="16.383"/>
				<rect x="414.544" y="250.164" style="fill-rule:evenodd;clip-rule:evenodd;fill:#FFF1CF;" width="19.712" height="16.383"/>
				<rect x="362.688" y="225.843" style="fill-rule:evenodd;clip-rule:evenodd;fill:#FFF1CF;" width="19.711" height="16.383"/>
				<rect x="388.615" y="225.843" style="fill-rule:evenodd;clip-rule:evenodd;fill:#FFF1CF;" width="19.712" height="40.702"/>
				<rect x="414.544" y="225.843" style="fill-rule:evenodd;clip-rule:evenodd;fill:#FFF1CF;" width="19.712" height="16.383"/>
				<rect x="362.688" y="201.521" style="fill-rule:evenodd;clip-rule:evenodd;fill:#FFF1CF;" width="19.711" height="16.384"/>
				<rect x="388.615" y="201.521" style="fill-rule:evenodd;clip-rule:evenodd;fill:#FFF1CF;" width="19.712" height="16.384"/>
				<rect x="414.544" y="201.521" style="fill-rule:evenodd;clip-rule:evenodd;fill:#FFF1CF;" width="19.712" height="16.384"/>
			</g>
			<rect x="368.722" y="174.489" style="fill-rule:evenodd;clip-rule:evenodd;fill:#FFF1CF;" width="17.248" height="9.115"/>
			<rect x="389.847" y="174.489" style="fill-rule:evenodd;clip-rule:evenodd;fill:#FFF1CF;" width="17.249" height="9.115"/>
			<rect x="410.972" y="174.489" style="fill-rule:evenodd;clip-rule:evenodd;fill:#FFF1CF;" width="17.249" height="9.115"/>
		</g>
	</g>
	<g>
		<path style="fill-rule:evenodd;clip-rule:evenodd;fill:#FFD47F;" d="M318.147,299.077h-10.283v49.652
			c3.638,3.563,7.084,3.863,10.283,0V299.077z"/>
		<ellipse style="fill-rule:evenodd;clip-rule:evenodd;fill:#B4DE59;" cx="313.004" cy="274.655" rx="36.519" ry="38.285"/>
	</g>
	<g>
		<path style="fill-rule:evenodd;clip-rule:evenodd;fill:#FFD47F;" d="M176.699,316.599h-9.928v38.333
			c3.513,2.752,6.84,2.984,9.928,0V316.599z"/>
		<path style="fill-rule:evenodd;clip-rule:evenodd;fill:#B4DE59;" d="M171.735,218.386c-18.329,29.18-28.612,61.933-28.772,99.188
			c18.805,6.022,37.95,6.614,57.545,0C198.696,284.512,187.681,251.448,171.735,218.386z"/>
	</g>
	<path style="fill-rule:evenodd;clip-rule:evenodd;fill:#8F99A1;" d="M282.109,338.515L282.109,338.515
		c0.002-0.007,0.005-0.015,0.008-0.023C282.114,338.5,282.111,338.508,282.109,338.515z"/>
	<path style="fill-rule:evenodd;clip-rule:evenodd;fill:#8F99A1;" d="M225.947,338.515L225.947,338.515
		c0.01-0.028,0.02-0.062,0.033-0.105C225.968,338.453,225.956,338.487,225.947,338.515z"/>
	<path style="fill-rule:evenodd;clip-rule:evenodd;fill:#719994;" d="M459.457,338.546
		c-34.641,80.529-114.684,136.923-207.908,136.923S78.281,419.075,43.642,338.546H459.457z"/>
	<g>
		<polygon style="fill-rule:evenodd;clip-rule:evenodd;fill:#FFFFFF;" points="82.628,395.846 114.601,395.846 114.601,399.754 
			82.668,399.754 82.628,399.707 		"/>
		<rect x="126.323" y="395.846" style="fill-rule:evenodd;clip-rule:evenodd;fill:#FFFFFF;" width="31.973" height="3.908"/>
		<rect x="170.02" y="395.846" style="fill-rule:evenodd;clip-rule:evenodd;fill:#FFFFFF;" width="31.973" height="3.908"/>
		<rect x="213.715" y="395.846" style="fill-rule:evenodd;clip-rule:evenodd;fill:#FFFFFF;" width="31.973" height="3.908"/>
		<rect x="257.41" y="395.846" style="fill-rule:evenodd;clip-rule:evenodd;fill:#FFFFFF;" width="31.973" height="3.908"/>
		<rect x="301.106" y="395.846" style="fill-rule:evenodd;clip-rule:evenodd;fill:#FFFFFF;" width="31.972" height="3.908"/>
		<rect x="344.802" y="395.846" style="fill-rule:evenodd;clip-rule:evenodd;fill:#FFFFFF;" width="31.973" height="3.908"/>
		<polygon style="fill-rule:evenodd;clip-rule:evenodd;fill:#FFFFFF;" points="388.498,395.846 420.47,395.846 420.47,399.707 
			420.43,399.754 388.498,399.754 		"/>
	</g>
	<g id="scooter">
		
			<rect x="138.508" y="352.477" transform="matrix(-0.9286 -0.3712 0.3712 -0.9286 138.6779 734.7175)" style="fill-rule:evenodd;clip-rule:evenodd;fill:#38413E;" width="3.073" height="3.073"/>
		<g>
			<path style="fill-rule:evenodd;clip-rule:evenodd;fill:#656E6B;" d="M129.931,381.584c1.505,0,2.731-1.227,2.731-2.732
				c0-1.504-1.227-2.73-2.731-2.73c-1.504,0-2.73,1.227-2.73,2.73C127.2,380.358,128.427,381.584,129.931,381.584z"/>
			<path style="fill-rule:evenodd;clip-rule:evenodd;fill:#AABFBD;" d="M129.931,371.307c4.169,0,7.548,3.379,7.548,7.547
				c0,4.168-3.379,7.547-7.548,7.547v-3.672c2.141,0,3.876-1.734,3.876-3.875c0-2.141-1.735-3.877-3.876-3.877V371.307z
				 M129.931,371.307L129.931,371.307v3.67l0,0c-2.141,0-3.875,1.736-3.875,3.877c0,2.141,1.734,3.875,3.875,3.875l0,0v3.672l0,0
				c-4.168,0-7.547-3.379-7.547-7.547C122.384,374.686,125.763,371.307,129.931,371.307z"/>
			<path style="fill-rule:evenodd;clip-rule:evenodd;fill:#425957;" d="M129.931,373.797c2.793,0,5.057,2.264,5.057,5.057
				c0,2.791-2.264,5.055-5.057,5.055v-1.18c2.141,0,3.876-1.734,3.876-3.875c0-2.141-1.735-3.877-3.876-3.877V373.797z
				 M129.931,373.797L129.931,373.797v1.18l0,0c-2.141,0-3.875,1.736-3.875,3.877c0,2.141,1.734,3.875,3.875,3.875l0,0v1.18l0,0
				c-2.792,0-5.056-2.264-5.056-5.055C124.875,376.061,127.139,373.797,129.931,373.797z"/>
			<polygon style="fill-rule:evenodd;clip-rule:evenodd;fill:#425957;" points="133.832,376.278 134.13,376.793 130.527,378.873 
				134.112,380.944 133.814,381.459 130.211,379.379 130.211,383.52 129.614,383.52 129.614,379.358 126.029,381.428 
				125.731,380.912 129.335,378.832 125.749,376.762 126.048,376.246 129.65,378.327 129.65,374.186 130.246,374.186 
				130.246,378.348 			"/>
			<path style="fill-rule:evenodd;clip-rule:evenodd;fill:#656E6B;" d="M131.67,373.416l0.332,0.178
				c0.071,0.037,0.099,0.127,0.06,0.199l-1.516,2.822c-0.039,0.072-0.128,0.1-0.2,0.061l-0.331-0.178
				c-0.071-0.039-0.099-0.127-0.061-0.199l1.517-2.822C131.509,373.405,131.599,373.377,131.67,373.416z"/>
			<path style="fill-rule:evenodd;clip-rule:evenodd;fill:#FFD47F;" d="M130.766,374.653l0.709,0.379
				c0.152,0.08,0.21,0.273,0.129,0.426l-3.239,6.029c-0.082,0.152-0.274,0.211-0.427,0.129l-0.708-0.379
				c-0.152-0.082-0.211-0.273-0.129-0.426l3.239-6.029C130.422,374.629,130.613,374.571,130.766,374.653z"/>
		</g>
		<path style="fill-rule:evenodd;clip-rule:evenodd;fill:#FFD47F;" d="M129.632,368.055c4.193,0,7.776,2.613,9.209,6.301h-18.417
			C121.856,370.668,125.439,368.055,129.632,368.055z"/>
		<path style="fill-rule:evenodd;clip-rule:evenodd;fill:#FFD47F;" d="M140.605,354.139l1.642,0.781
			c0.314,0.15,0.869,0.006,0.997-0.318l2.119-5.387l-4.758-2.504V354.139L140.605,354.139z M140.605,378.983v-8.838l0.03,0.08
			c0.513,1.408,2.498,2.311,3.745,2.117l7.722-1.191c1.637-0.252,2.407-2.047,1.833-4.166l-1.161-4.285l22.513-3.277
			c2.023-0.295,5.473,3.801,6.33,8.188l-18.484,4.287l-3.304,3.303c-0.823,0.824-1.794,1.715-2.947,1.875l-14.645,2.055
			C141.696,379.205,141.145,379.145,140.605,378.983L140.605,378.983z M140.605,361.307v-6.805l1.559,0.74
			c0.32,0.152,0.577,0.637,0.447,0.967L140.605,361.307z M140.273,346.537l-3.521,0.338c-1.225,1.674-1.224,3.428,0.134,5.272
			c0.011,0.254,0.186,0.307,0.53,0.471l3.189,1.521v-7.428L140.273,346.537L140.273,346.537z M140.605,354.502v6.805l-1.672,4.25
			l1.672,4.588v8.838c-1.39-0.414-2.697-1.496-3.547-2.621l-8.215-10.895c0.893-4.613,3.484-8.758,7.188-12.453
			c0.367-0.367,0.709-0.412,1.233-0.1L140.605,354.502z"/>
		<path style="fill-rule:evenodd;clip-rule:evenodd;fill:#425957;" d="M140.273,346.537l-3.521,0.338
			c-1.225,1.674-1.224,3.428,0.134,5.272C138.298,350.739,137.104,348.578,140.273,346.537z"/>
		<g>
			<path style="fill-rule:evenodd;clip-rule:evenodd;fill:#656E6B;" d="M174.258,381.584c1.504,0,2.731-1.227,2.731-2.732
				c0-1.504-1.227-2.73-2.731-2.73c-1.505,0-2.731,1.227-2.731,2.73C171.526,380.358,172.753,381.584,174.258,381.584z"/>
			<path style="fill-rule:evenodd;clip-rule:evenodd;fill:#AABFBD;" d="M174.258,371.307c4.168,0,7.547,3.379,7.547,7.547
				c0,4.168-3.379,7.547-7.547,7.547v-3.672c2.141,0,3.875-1.734,3.875-3.875c0-2.141-1.734-3.877-3.875-3.877V371.307z
				 M174.258,371.307L174.258,371.307v3.67l0,0c-2.141,0-3.876,1.736-3.876,3.877c0,2.141,1.735,3.875,3.876,3.875l0,0v3.672l0,0
				c-4.168,0-7.547-3.379-7.547-7.547C166.711,374.686,170.09,371.307,174.258,371.307z"/>
			<path style="fill-rule:evenodd;clip-rule:evenodd;fill:#425957;" d="M174.258,373.797c2.793,0,5.057,2.264,5.057,5.057
				c0,2.791-2.264,5.055-5.057,5.055v-1.18c2.141,0,3.875-1.734,3.875-3.875c0-2.141-1.734-3.877-3.875-3.877V373.797z
				 M174.258,373.797L174.258,373.797v1.18l0,0c-2.141,0-3.876,1.736-3.876,3.877c0,2.141,1.735,3.875,3.876,3.875l0,0v1.18l0,0
				c-2.792,0-5.057-2.264-5.057-5.055C169.201,376.061,171.466,373.797,174.258,373.797z"/>
			<polygon style="fill-rule:evenodd;clip-rule:evenodd;fill:#425957;" points="178.159,376.278 178.457,376.793 174.854,378.873 
				178.439,380.944 178.141,381.459 174.538,379.379 174.538,383.52 173.941,383.52 173.941,379.358 170.356,381.428 
				170.059,380.912 173.662,378.832 170.076,376.762 170.375,376.246 173.978,378.327 173.978,374.186 174.573,374.186 
				174.573,378.348 			"/>
		</g>
		<path style="fill-rule:evenodd;clip-rule:evenodd;fill:#425957;" d="M137.077,376.385l0.425,0.748
			c0.95,1.674,2.785,3.344,4.736,3.254l14.737-0.68c1.159-0.053,2.238-0.852,3.163-1.598l3.712-2.994l16.933-2.293
			c-1.74-1.803-4.101-2.877-6.591-3.49l-11.06,2.565l-3.304,3.303c-0.823,0.824-1.794,1.715-2.947,1.875l-14.645,2.055
			C140.31,379.401,138.259,377.94,137.077,376.385z"/>
		<rect x="142.245" y="343.643" style="fill-rule:evenodd;clip-rule:evenodd;fill:#425957;" width="0.432" height="4.642"/>
		<path style="fill-rule:evenodd;clip-rule:evenodd;fill:#425957;" d="M142.245,342.433h0.432c0.143,0,0.259,0.116,0.259,0.259
			v0.691c0,0.143-0.116,0.26-0.259,0.26h-0.432c-0.144,0-0.26-0.117-0.26-0.26v-0.691
			C141.985,342.55,142.102,342.433,142.245,342.433z"/>
		<rect x="142.936" y="342.822" style="fill-rule:evenodd;clip-rule:evenodd;fill:#425957;" width="0.777" height="0.433"/>
		<path style="fill-rule:evenodd;clip-rule:evenodd;fill:#BE6249;" d="M144.841,341.423c0.144,0.408,0.233,0.981,0.233,1.616
			c0,0.634-0.09,1.207-0.233,1.615c-0.743-0.163-1.3-0.824-1.3-1.615C143.541,342.247,144.098,341.586,144.841,341.423z"/>
		<path style="fill-rule:evenodd;clip-rule:evenodd;fill:#425957;" d="M141.908,351.262c1.313,0,2.385-0.734,2.385-1.635
			c0-0.9-1.072-1.635-2.385-1.635c-1.314,0-2.385,0.734-2.385,1.635C139.523,350.528,140.595,351.262,141.908,351.262z"/>
		<circle style="fill-rule:evenodd;clip-rule:evenodd;fill:#F3AA1D;" cx="141.855" cy="349.626" r="0.874"/>
		<path style="fill-rule:evenodd;clip-rule:evenodd;fill:#AABFBD;" d="M141.835,349.065h3.726c0.309,0,0.562,0.254,0.562,0.563l0,0
			c0,0.31-0.253,0.563-0.562,0.563h-3.726c-0.309,0-0.561-0.252-0.561-0.563l0,0C141.273,349.319,141.525,349.065,141.835,349.065z"
			/>
		<circle style="fill-rule:evenodd;clip-rule:evenodd;fill:#425957;" cx="145.53" cy="349.627" r="0.377"/>
		<path style="fill-rule:evenodd;clip-rule:evenodd;fill:#425957;" d="M152.274,362.293c0.303,0.277,0.396,0.42,1.313,0.287
			s19.013-2.77,19.013-2.77s1.845-0.094,2.072-0.662c0.227-0.57-0.228-3.133-0.769-3.332c-0.269-0.1,0.329-0.049-1.81,0.102
			c-2.181,0.152-4.412,0.02-4.814,0.135c-0.798,0.229-2.733,1.281-5.382,1.482c-2.648,0.199-7.376-0.059-8.087,0.199
			C152.596,358.172,151.662,361.737,152.274,362.293z"/>
		<path style="fill-rule:evenodd;clip-rule:evenodd;fill:#FFEBC4;" d="M163.133,371.897c-1.812-0.217-3.328-0.643-5.075-3.555
			c-1.197-1.996-2.462-4.793,0.691-5.715c3.24-0.947,10.661-2.305,15.068-1.055c4.475,1.268,6.902,4.035,7.417,6.127
			L163.133,371.897z"/>
		<path style="fill-rule:evenodd;clip-rule:evenodd;fill:#FFD47F;" d="M163.752,371.334c-1.621-0.193-2.978-0.576-4.542-3.182
			c-1.071-1.787-2.203-4.289,0.619-5.113c2.899-0.848,9.541-2.063,13.485-0.945c4.137,1.172,6.319,3.779,6.678,5.668
			c0.014,0.076,0.008,0.15-0.013,0.229l-14.855,3.443C164.639,371.418,164.179,371.385,163.752,371.334z"/>
		<path style="fill-rule:evenodd;clip-rule:evenodd;fill:#425957;" d="M181.234,367.7l3.579,6.943l-0.315,0.246
			c0,0-1.089-0.279-1.089-0.631c0-0.352-3.917-6.154-3.917-6.154L181.234,367.7z"/>
		<path style="fill-rule:evenodd;clip-rule:evenodd;fill:#ABDBF5;" d="M136.752,346.875c-1.225,1.674-1.224,3.428,0.134,5.272
			c-0.024,0.027-0.049,0.051-0.074,0.074l0.074-0.074C138.345,350.547,137.367,347.342,136.752,346.875z"/>
		<path style="fill-rule:evenodd;clip-rule:evenodd;fill:#CFEEFF;" d="M136.451,347.328c-0.831,1.398-0.813,2.854,0.129,4.369
			C137.366,350.325,136.94,348.274,136.451,347.328z"/>
		<path style="fill-rule:evenodd;clip-rule:evenodd;fill:#ABDBF5;" d="M144.841,341.423c0.144,0.408,0.233,0.981,0.233,1.616
			c0,0.634-0.09,1.207-0.233,1.615c-0.145-0.408-0.234-0.981-0.234-1.615C144.606,342.404,144.696,341.831,144.841,341.423z"/>
		<path style="fill-rule:evenodd;clip-rule:evenodd;fill:#FFD47F;" d="M163.685,378.036c-1.146-0.334-1.806-1.533-1.471-2.68
			c0.334-1.146,1.534-1.803,2.681-1.469l9.499,1.492l0,0c0.273,0.012,0.549,0.057,0.823,0.137c1.849,0.539,2.91,2.475,2.371,4.322
			c-0.539,1.85-2.475,2.91-4.323,2.371c-0.274-0.078-0.531-0.19-0.769-0.326l0,0L163.685,378.036z"/>
		<circle style="fill-rule:evenodd;clip-rule:evenodd;fill:#FFEBC4;" cx="164.289" cy="375.961" r="1.292"/>
		<circle style="fill-rule:evenodd;clip-rule:evenodd;fill:#FFEBC4;" cx="174.258" cy="378.855" r="2.082"/>
		<path style="fill-rule:evenodd;clip-rule:evenodd;fill:#18C4B0;" d="M149.848,352.996h0.093c1.541,0,2.182,1.102,2.113,2.641
			l-0.576,12.785l-2.928,0.451l-1.505-13.074C146.868,354.268,148.306,352.996,149.848,352.996z"/>
		<path style="fill-rule:evenodd;clip-rule:evenodd;fill:#18C4B0;" d="M165.379,353.993l0.018,0.092
			c0.293,1.512-0.682,3.232-2.218,3.348l-12.969,0.965l-0.363-5.4l12.247-1.223C164.19,351.565,161.618,333.812,165.379,353.993z"/>
		<path style="fill-rule:evenodd;clip-rule:evenodd;fill:#425957;" d="M148.247,368.92c-1.706,0.348-4.142,1.371-3.866,3.422
			l7.512-1.16l-0.415-2.76L148.247,368.92z"/>
		<path style="fill-rule:evenodd;clip-rule:evenodd;fill:#EEB9B3;" d="M157.793,338.782c-0.191-0.912-0.721-1.87-2.109-1.918
			c-0.59-0.02-0.841-0.568-0.479-1.04c0.114-0.148-0.471-0.197-0.098-0.523c0.148-0.13-0.321-0.185-0.152-0.417
			c0.321-0.441,0.058-0.338-0.133-0.417c-0.458-0.189,0.159-0.862,0.352-1.342c0.191-0.479,0.175-1.247,0.175-1.726
			c0-0.48,6.521-1.343,6.089,0.958c-0.432,2.302-1.87,4.843-1.438,6.185C160.43,339.884,158.32,340.364,157.793,338.782z"/>
		<path style="fill-rule:evenodd;clip-rule:evenodd;fill:#BE6249;" d="M159.956,337.78c2.306,0.025,3.146,1.99,3.579,4.083
			c0.482,2.327,1.051,8.549,1.389,10.055c0.329,1.475-6.177,1.99-8.034,0.522c-1.126-0.893,0.038-4.988-0.541-7.981
			c-0.29-1.503,0.059-5.464,1.413-6.159C158.279,338.744,159.476,338.708,159.956,337.78z"/>
		<path style="fill-rule:evenodd;clip-rule:evenodd;fill:#EEB9B3;" d="M159.893,342.413L159.893,342.413
			c0.566,0.566,0.919,1.354,0.459,2.01l-4.51,6.425c-0.46,0.656-1.292,0.818-2.009,0.459l0,0c-0.716-0.357-0.92-1.352-0.459-2.008
			l4.51-6.427C158.344,342.217,159.214,341.987,159.893,342.413z"/>
		<path style="fill-rule:evenodd;clip-rule:evenodd;fill:#BE6249;" d="M161.004,340.641L161.004,340.641
			c1.01,0.635,1.317,1.978,0.684,2.987l-1.471,2.342l-3.669-2.305l1.47-2.341C158.651,340.315,159.995,340.009,161.004,340.641z"/>
		<path style="fill-rule:evenodd;clip-rule:evenodd;fill:#EEB9B3;" d="M147.539,348.026l7.182,0.76
			c0.797,0.082,0.917,1.043,0.917,1.844l0,0c0,0.801-1.083,1.162-1.846,0.918l-6.58-2.115
			C145.378,348.844,145.621,347.823,147.539,348.026z"/>
		<path style="fill-rule:evenodd;clip-rule:evenodd;fill:#EEB9B3;" d="M147.244,348.008c-1.793-0.199-3.208,0.063-3.326,1.68
			c-0.118,1.619,0.836,0.352,0.908-0.117c0.064-0.414,0.854-0.82,1.268-0.158c0.605,0.967,1.09-0.018,1.843,0.219
			C148.685,349.866,148.575,348.155,147.244,348.008z"/>
		<path style="fill-rule:evenodd;clip-rule:evenodd;fill:#803824;" d="M154.98,330.504c0,0.718,0.872,1.668,2.154,2.284
			c1.284,0.615,3.593,2.283,3.388,2.822c-0.205,0.539,1.822-0.564,2.027-2.822C162.754,330.53,156.955,326.681,154.98,330.504z"/>
		<path style="fill-rule:evenodd;clip-rule:evenodd;fill:#A65E96;" d="M157.522,338.563c0.373-0.311,0.939-1.623,1.426-2.369
			l0.004-0.005l0.061-0.091l0.052-0.075l0.052-0.073l0.057-0.079l0.01-0.012c0.03-0.042,0.062-0.084,0.094-0.125l0.02-0.025
			l0.051-0.064l0.06-0.074l0.058-0.069l0.061-0.07c0.036-0.042,0.073-0.084,0.11-0.124l0.009-0.009l0.013-0.016l0.048-0.05
			l0.061-0.063l0.061-0.063l0.067-0.066c0.038-0.037,0.076-0.072,0.114-0.108l0.007-0.007l0.063-0.056
			c0.04-0.036,0.081-0.07,0.122-0.104l0.004-0.004c0.039-0.032,0.078-0.063,0.116-0.093l0.014-0.011
			c0.803-0.621,1.66-0.886,2.467-0.788c0.29-0.599,0.452-1.272,0.452-1.984c0-2.521-2.044-4.566-4.566-4.566
			c-2.081,0-3.836,1.391-4.388,3.293c3.343,1.332,3.883,2.827,2.584,6.989C157.188,337.86,157.39,338.202,157.522,338.563z"/>
		<path style="fill-rule:evenodd;clip-rule:evenodd;fill:#D9B6D1;" d="M158.664,327.706c-1.541,0.033-2.927,0.855-3.533,2.162
			c-0.295,0.633,0.325,0.803,0.606,0.285c0.562-1.034,1.679-1.74,2.939-1.716C159.611,328.456,159.563,327.687,158.664,327.706z"/>
	</g>
	<g>
		<path style="fill-rule:evenodd;clip-rule:evenodd;fill:#FFD47F;" d="M367.626,137.463c10.261,0,18.628-8.368,18.628-18.628
			c0-10.261-8.367-18.629-18.628-18.629c-10.26,0-18.628,8.368-18.628,18.629C348.998,129.095,357.366,137.463,367.626,137.463z"/>
		<path style="fill-rule:evenodd;clip-rule:evenodd;fill:#FFD47F;" d="M367.626,86.064l2.811,10.482
			c-0.921-0.114-1.859-0.175-2.811-0.175c-0.952,0-1.891,0.06-2.812,0.175L367.626,86.064L367.626,86.064z M378.452,99.149
			l8.436-6.826L383,102.46C381.634,101.177,380.106,100.061,378.452,99.149L378.452,99.149z M387.956,109.272l10.836-0.564
			l-9.101,5.913C389.336,112.745,388.747,110.952,387.956,109.272L387.956,109.272z M389.691,123.048l9.101,5.913l-10.836-0.564
			C388.747,126.717,389.336,124.924,389.691,123.048L389.691,123.048z M383,135.209l3.888,10.137l-8.436-6.826
			C380.106,137.607,381.634,136.492,383,135.209L383,135.209z M370.438,141.122l-2.811,10.482l-2.812-10.482
			c0.921,0.115,1.859,0.176,2.812,0.176C368.578,141.298,369.517,141.237,370.438,141.122L370.438,141.122z M356.8,138.519
			l-8.436,6.826l3.888-10.137C353.619,136.492,355.146,137.607,356.8,138.519L356.8,138.519z M347.297,128.396l-10.837,0.564
			l9.1-5.913C345.916,124.924,346.505,126.718,347.297,128.396L347.297,128.396z M345.56,114.621l-9.1-5.913l10.837,0.564
			C346.505,110.952,345.916,112.745,345.56,114.621L345.56,114.621z M352.252,102.46l-3.888-10.137l8.436,6.826
			C355.146,100.061,353.618,101.177,352.252,102.46z"/>
	</g>
	<g id="car">
		<g>
			<path style="fill-rule:evenodd;clip-rule:evenodd;fill:#96D2E3;" d="M201.041,383.889h24.985
				c10.67,0,21.342,13.082,31.065,19.393c6.891,4.459,10.532,4.5,14.243,5.41c5.343,1.309,8.415,4.713,9.85,7.49
				c1.392,2.691,2.042,9.023,2.042,12.059c0,3.486-2.34,4.91-4.598,4.91H172.457c-2.256,0-3.38-2.77-3.571-5.008
				c-0.309-3.565-0.777-10.137,0-13.709C171.437,402.696,180.756,383.889,201.041,383.889z"/>
			<path style="fill-rule:evenodd;clip-rule:evenodd;fill:#FFFFFF;" d="M283.227,428.209c0-0.406-0.014-0.906-0.038-1.428
				l-114.525-1.561c0.07,1.082,0.15,2.107,0.222,2.922c0.191,2.238,1.316,5.008,3.571,5.008h106.171
				C280.887,433.151,283.227,431.703,283.227,428.209z"/>
			<path style="fill-rule:evenodd;clip-rule:evenodd;fill:#FFFFFF;" d="M177.846,433.151c0-10.947,6.845-15.277,15.284-15.277
				c8.439,0,15.282,4.33,15.282,15.277H177.846z"/>
			<path style="fill-rule:evenodd;clip-rule:evenodd;fill:#AABFBD;" d="M205.006,433.36c0,6.615-5.357,11.975-11.975,11.975
				c-6.609,0-11.971-5.359-11.971-11.975c0-6.611,5.361-11.973,11.971-11.973C199.647,421.387,205.006,426.748,205.006,433.36z"/>
			<circle style="fill-rule:evenodd;clip-rule:evenodd;fill:#7A8F8D;" cx="193.036" cy="433.362" r="4.844"/>
			<path style="fill-rule:evenodd;clip-rule:evenodd;fill:#FFFFFF;" d="M242.225,433.151c0-10.947,6.84-15.277,15.28-15.277
				c8.442,0,15.283,4.33,15.283,15.277H242.225z"/>
			<path style="fill-rule:evenodd;clip-rule:evenodd;fill:#AABFBD;" d="M269.384,433.36c0,6.615-5.358,11.975-11.973,11.975
				c-6.615,0-11.973-5.359-11.973-11.975c0-6.611,5.358-11.973,11.973-11.973C264.025,421.387,269.384,426.748,269.384,433.36z"/>
			<circle style="fill-rule:evenodd;clip-rule:evenodd;fill:#7A8F8D;" cx="257.409" cy="433.362" r="4.791"/>
			<path style="fill-rule:evenodd;clip-rule:evenodd;fill:#BFFFF8;" d="M227.444,386.815c0,0,14.576,2.549,23.259,18.969h-23.259
				V386.815z"/>
			<rect x="200.078" y="386.815" style="fill-rule:evenodd;clip-rule:evenodd;fill:#BFFFF8;" width="24.63" height="18.969"/>
			<path style="fill-rule:evenodd;clip-rule:evenodd;fill:#BFFFF8;" d="M197.342,386.815v18.969c0,0-11.744,0-18.635,0
				C171.636,405.784,183.658,387.371,197.342,386.815z"/>
			<path style="fill-rule:evenodd;clip-rule:evenodd;fill:#E6E6E6;" d="M229.388,409.149c0,0.523-0.421,0.951-0.95,0.951
				l-3.237-0.002c-0.525,0-0.949-0.426-0.949-0.949v-0.668c0-0.521,0.425-0.951,0.95-0.951h3.236c0.529,0,0.95,0.43,0.95,0.951
				V409.149z"/>
			<path style="fill-rule:evenodd;clip-rule:evenodd;fill:#E6E6E6;" d="M203.698,409.149c0,0.523-0.424,0.951-0.947,0.951
				l-3.242-0.002c-0.525,0-0.949-0.426-0.949-0.949v-0.668c0-0.521,0.424-0.951,0.949-0.951h3.242c0.523,0,0.948,0.43,0.948,0.951
				L203.698,409.149z"/>
			<path style="fill-rule:evenodd;clip-rule:evenodd;fill:#E6E6E6;" d="M253.575,406.453c-0.097,0.682-0.726,1.16-1.414,1.063
				l-4.223-0.6c-0.686-0.098-1.159-0.73-1.063-1.412l0.124-0.871c0.097-0.682,0.729-1.162,1.414-1.066l4.222,0.598
				c0.689,0.098,1.159,0.736,1.063,1.418L253.575,406.453z"/>
			<path style="fill-rule:evenodd;clip-rule:evenodd;fill:#FFFFFF;" d="M277.979,412.106c-1.549,0.928-2.599,2.715-2.599,4.766
				c0,3.006,2.252,5.443,5.03,5.443c0.815,0,1.584-0.209,2.266-0.582c-0.337-2.176-0.83-4.273-1.491-5.551
				C280.506,414.868,279.459,413.412,277.979,412.106z"/>
		</g>
		<g>
			<path style="fill-rule:evenodd;clip-rule:evenodd;fill:#EEB9B3;" d="M231.357,398.543c0.191-0.912,0.721-1.871,2.109-1.918
				c0.589-0.02,0.841-0.568,0.48-1.041c-0.114-0.148,0.471-0.197,0.098-0.523c-0.149-0.129,0.321-0.186,0.152-0.416
				c-0.321-0.441-0.058-0.338,0.134-0.416c0.457-0.189-0.16-0.863-0.353-1.344c-0.192-0.478-0.175-1.246-0.175-1.725
				c0-0.48-6.521-1.344-6.089,0.959c0.432,2.301,1.869,4.842,1.439,6.184C228.721,399.645,230.83,400.125,231.357,398.543z"/>
			<path style="fill-rule:evenodd;clip-rule:evenodd;fill:#FFB7A3;" d="M229.193,397.541c-0.699,0.686-1.272,1.428-1.749,2.213
				v6.029h4.63c-0.185-2.799-0.434-5.701-0.581-7.018C230.976,399.209,229.675,398.469,229.193,397.541z"/>
			<path style="fill-rule:evenodd;clip-rule:evenodd;fill:#EEB9B3;" d="M229.258,402.174L229.258,402.174
				c-0.566,0.566-0.919,1.354-0.459,2.01l1.123,1.6h3.555l-2.21-3.15C230.807,401.977,229.937,401.748,229.258,402.174z"/>
			<path style="fill-rule:evenodd;clip-rule:evenodd;fill:#ED7B5C;" d="M228.146,400.403L228.146,400.403
				c-0.296,0.188-0.531,0.434-0.701,0.717v2.24l0.019,0.029l1.47,2.342l3.671-2.305l-1.471-2.34
				C230.499,400.077,229.155,399.77,228.146,400.403z"/>
			<path style="fill-rule:evenodd;clip-rule:evenodd;fill:#425957;" d="M234.066,391.1c0,0.719-1.029,2.117-2.89,1.867
				c-0.946,2.109-2.152,2.346-2.212,3.27c-0.659-1.215-1.236-2.068-1.52-2.961v-2.291C228.548,387.92,234.217,388.237,234.066,391.1
				z"/>
			<ellipse style="fill-rule:evenodd;clip-rule:evenodd;fill:#EEB9B3;" cx="230.805" cy="393.175" rx="0.387" ry="0.788"/>
			<path style="fill-rule:evenodd;clip-rule:evenodd;fill:#425957;" d="M231.479,393.963c2.151-1.205,3.065-2.398,2.399-3.846
				c0.175,0.242-1.326,0.111-1.308,0.754C232.596,391.731,232.349,392.85,231.479,393.963z"/>
		</g>
	</g>
	<g id="truck">
		<polygon style="fill-rule:evenodd;clip-rule:evenodd;fill:#FFB7A3;" points="324.688,314.268 294.05,314.268 261.854,342.828 
			261.854,365.676 324.688,365.676 		"/>
		<rect x="324.688" y="299.727" style="fill-rule:evenodd;clip-rule:evenodd;fill:#368196;" width="86.98" height="65.949"/>
		<polygon style="fill-rule:evenodd;clip-rule:evenodd;fill:#BFFFF8;" points="307.291,319.098 295.362,319.098 270.883,340.813 
			270.883,345.165 307.291,345.165 		"/>
		<path style="fill-rule:evenodd;clip-rule:evenodd;fill:#ED7B5C;" d="M411.668,365.676H260.944c-2.356,0-4.284,1.928-4.284,4.285
			l0,0c0,2.355,1.928,4.283,4.284,4.283h150.724c2.356,0,4.284-1.928,4.284-4.283l0,0
			C415.952,367.604,414.024,365.676,411.668,365.676z"/>
		<path style="fill-rule:evenodd;clip-rule:evenodd;fill:#AABFBD;" d="M378.627,386.401c6.436,0,11.685-5.25,11.685-11.684
			c0-6.435-5.249-11.685-11.685-11.685c-6.435,0-11.684,5.25-11.684,11.685C366.943,381.151,372.191,386.401,378.627,386.401z"/>
		<circle style="fill-rule:evenodd;clip-rule:evenodd;fill:#7A8F8D;" cx="378.627" cy="374.716" r="4.886"/>
		<path style="fill-rule:evenodd;clip-rule:evenodd;fill:#AABFBD;" d="M287.559,386.401c6.435,0,11.684-5.25,11.684-11.684
			c0-6.435-5.249-11.685-11.684-11.685c-6.436,0-11.685,5.25-11.685,11.685C275.874,381.151,281.123,386.401,287.559,386.401z"/>
		<circle style="fill-rule:evenodd;clip-rule:evenodd;fill:#7A8F8D;" cx="287.559" cy="374.716" r="4.886"/>
		<rect x="261.854" y="351.397" style="fill-rule:evenodd;clip-rule:evenodd;fill:#FFFFFF;" width="4.154" height="12.203"/>
		<rect x="324.688" y="294.287" style="fill-rule:evenodd;clip-rule:evenodd;fill:#ED7B5C;" width="86.98" height="5.44"/>
		<rect x="293.393" y="308.709" style="fill-rule:evenodd;clip-rule:evenodd;fill:#ED7B5C;" width="31.295" height="5.441"/>
	</g>
	<g>
		<path style="fill-rule:evenodd;clip-rule:evenodd;fill:#EEB9B3;" d="M294.259,337.926c-0.191-0.912-0.721-1.87-2.109-1.919
			c-0.589-0.02-0.841-0.568-0.478-1.039c0.114-0.148-0.472-0.197-0.099-0.523c0.15-0.13-0.321-0.186-0.152-0.418
			c0.321-0.44,0.059-0.337-0.133-0.416c-0.458-0.189,0.16-0.863,0.352-1.342c0.192-0.479,0.175-1.247,0.175-1.727
			s6.52-1.342,6.089,0.959c-0.432,2.301-1.869,4.842-1.438,6.185C296.896,339.028,294.786,339.507,294.259,337.926z"/>
		<path style="fill-rule:evenodd;clip-rule:evenodd;fill:#B4DE59;" d="M296.423,336.924c0.7,0.686,1.273,1.428,1.749,2.213v6.028
			h-4.63c0.185-2.798,0.807-5.459,0.954-6.775C295.014,338.834,295.942,337.85,296.423,336.924z"/>
		<path style="fill-rule:evenodd;clip-rule:evenodd;fill:#EEB9B3;" d="M297.147,343.368l-1.012,1.797h-3.995l1.992-3.539
			C295.265,339.614,298.316,341.4,297.147,343.368z"/>
		<path style="fill-rule:evenodd;clip-rule:evenodd;fill:#425957;" d="M291.55,330.482c0,0.719,1.029,2.118,2.89,1.867
			c0.946,2.108,2.152,2.346,2.213,3.27c1.858-2.475,2.268-3.751,1.281-5.733C296.248,326.498,291.447,328.273,291.55,330.482z"/>
		<ellipse style="fill-rule:evenodd;clip-rule:evenodd;fill:#EEB9B3;" cx="294.813" cy="332.557" rx="0.386" ry="0.789"/>
	</g>
	<polygon style="fill-rule:evenodd;clip-rule:evenodd;fill:#BE6249;" points="281.049,337.847 281.956,337.847 284.615,345.165 
		283.708,345.165 	"/>
	<path style="fill-rule:evenodd;clip-rule:evenodd;fill:#BE6249;" d="M301.156,345.165v-6.381c0-0.821-0.672-1.492-1.492-1.492l0,0
		c-0.82,0-1.492,0.671-1.492,1.492v6.381H301.156z"/>
	<g id="plane" id="rocket_launch">
		<path style="fill-rule:evenodd;clip-rule:evenodd;fill:#ED7B5C;" d="M231.365,110.667l-6.021,0.882l-0.027-0.054
			c-0.604,0.138-1.295,0.189-2.031,0.189l-20.982,0.605l0.002,0.1l-10.226,0.4l0.001-0.057l-9.352,0.404
			c-1.898-0.002-3.487-1.292-3.949-3.044c-0.114-0.436-0.164-1.007-0.12-1.455c0.206-2.063,1.944-3.679,4.066-3.679l9.351,0.402
			v-0.057l10.229,0.371v0.047l-0.001,0.067l20.98,0.6c0.813-0.001,1.567,0.055,2.21,0.226l0.062-0.112l5.811,1.185
			C231.335,110.747,231.362,106.657,231.365,110.667z"/>
		<polygon style="fill-rule:evenodd;clip-rule:evenodd;fill:#368196;" points="195.772,98.177 198.719,92.821 198.707,92.821 
			200.054,90.391 200.06,90.391 203.608,83.952 210.948,83.95 202.302,104.862 202.311,105.788 192.076,105.356 192.076,104.866 
			194.426,100.609 194.397,100.609 195.742,98.178 		"/>
		<polygon style="fill-rule:evenodd;clip-rule:evenodd;fill:#368196;" points="192.063,112.729 202.31,112.29 202.306,113.038 
			210.962,135.388 203.622,135.388 200.957,130.239 200.933,130.238 199.634,127.804 199.693,127.805 199.704,127.805 
			196.312,121.239 196.276,121.241 195.01,118.808 195.057,118.807 192.08,113.044 		"/>
		<polygon style="fill-rule:evenodd;clip-rule:evenodd;fill:#368196;" points="229.241,99.804 232.871,98.934 231.364,107.657 
			231.365,107.688 225.475,106.595 		"/>
		<polygon style="fill-rule:evenodd;clip-rule:evenodd;fill:#368196;" points="231.364,110.724 232.878,119.981 229.246,119.112 
			225.297,111.503 231.365,110.667 		"/>
		<path style="fill-rule:evenodd;clip-rule:evenodd;fill:#ED7B5C;" d="M195.581,130.239c-0.671,0.001-1.214-0.544-1.213-1.22
			c0-0.668,0.54-1.213,1.212-1.213l4.114-0.005l1.238,2.437L195.581,130.239z"/>
		<path style="fill-rule:evenodd;clip-rule:evenodd;fill:#ED7B5C;" d="M190.735,118.807h4.313l1.27,2.442l-5.583-0.009
			c-0.669,0.001-1.207-0.546-1.207-1.217C189.528,119.355,190.065,118.809,190.735,118.807z"/>
		<path style="fill-rule:evenodd;clip-rule:evenodd;fill:#ED7B5C;" d="M190.73,98.178l5.045-0.003l-1.362,2.435h-3.684
			c-0.668,0-1.205-0.545-1.206-1.22C189.522,98.718,190.061,98.179,190.73,98.178z"/>
		<path style="fill-rule:evenodd;clip-rule:evenodd;fill:#ED7B5C;" d="M194.736,92.823c-0.671,0-1.218-0.548-1.217-1.216
			c-0.002-0.672,0.545-1.216,1.217-1.215l5.317-0.001l-1.343,2.441L194.736,92.823z"/>
	</g>
</g>
<path style="opacity:0.5;fill:none;stroke:#4C4C4C;stroke-width:2;stroke-linecap:round;stroke-miterlimit:10;" d="M368.536,42.144
	c5.375,3.043,10.619,6.289,15.723,9.727"/>
<path style="opacity:0.5;fill:none;stroke:#4C4C4C;stroke-width:2;stroke-linecap:round;stroke-miterlimit:10;" d="M416.881,78.301
	c44.692,43.236,72.477,103.841,72.477,170.935c0,131.338-106.471,237.809-237.809,237.809S13.74,380.574,13.74,249.236
	S120.211,11.427,251.549,11.427c31.487,0,61.545,6.119,89.049,17.234"/>
</svg>
