<?xml version="1.0" encoding="utf-8"?>
<!-- Generator: Adobe Illustrator 17.0.0, SVG Export Plug-In . SVG Version: 6.00 Build 0)  -->
<!DOCTYPE svg PUBLIC "-//W3C//DTD SVG 1.1//EN" "http://www.w3.org/Graphics/SVG/1.1/DTD/svg11.dtd">
<svg version="1.1" id="Layer_1" xmlns="http://www.w3.org/2000/svg" xmlns:xlink="http://www.w3.org/1999/xlink" x="0px" y="0px"
	 width="381.481px" height="117.845px" viewBox="0 0 381.481 117.845" enable-background="new 0 0 381.481 117.845"
	 xml:space="preserve">
<g>
	<path fill="#0856A2" d="M369.846,37.293h5.384c-0.315,1.921-1.307,3.428-2.983,4.511c-1.666,1.099-3.818,1.636-6.443,1.636
		c-3.918,0-6.991-1.184-9.208-3.581c-2.221-2.407-3.326-5.748-3.326-10.031c0-4.182,1.094-7.477,3.284-9.872
		c2.202-2.412,5.189-3.614,8.957-3.614c3.515,0,6.22,1.223,8.125,3.675c1.906,2.456,2.849,5.967,2.849,10.534v0.184h-18.201v0.291
		c0,2.57,0.651,4.587,1.987,6.023c1.329,1.454,3.164,2.184,5.489,2.184c1.108,0,2.009-0.155,2.699-0.487
		C369.148,38.424,369.615,37.94,369.846,37.293 M371.612,26.649c-0.224-2.015-0.885-3.563-1.997-4.646
		c-1.124-1.089-2.603-1.63-4.459-1.63c-1.785,0-3.282,0.547-4.488,1.645c-1.216,1.099-2.009,2.642-2.383,4.631H371.612z
		 M336.229,43.031c-3.785,0-6.429-0.805-7.896-2.407c-1.482-1.589-2.209-4.832-2.209-9.721l-0.004-25.886h4.532V30.09
		c0,3.816,0.507,6.223,1.5,7.203c1.013,0.971,3.037,1.466,6.101,1.466h1.844v4.272H336.229z M305.306,20.016l-0.008-3.26h4.501
		v23.618c0,4.296-0.905,7.336-2.726,9.099c-1.836,1.767-4.915,2.654-9.243,2.654c-3.102,0-5.516-0.589-7.268-1.748
		c-1.751-1.156-2.674-2.791-2.794-4.934h4.973c0.116,0.919,0.577,1.568,1.351,1.953c0.778,0.388,2.148,0.572,4.085,0.572
		c2.694,0,4.558-0.501,5.578-1.497c1.035-1.001,1.551-2.992,1.551-5.978v-2.42c-0.962,1.23-2.117,2.132-3.452,2.735
		c-1.336,0.593-2.837,0.889-4.52,0.889c-3.253,0-5.896-1.16-7.891-3.481c-1.99-2.33-3.003-5.402-3.003-9.232
		c0-3.806,0.994-6.85,2.987-9.118c1.999-2.284,4.65-3.411,7.965-3.411c1.706,0,3.222,0.298,4.554,0.892
		C303.281,17.947,304.405,18.831,305.306,20.016z M297.949,20.66c-2.047,0-3.707,0.741-4.931,2.215
		c-1.22,1.486-1.835,3.486-1.835,5.989c0,2.718,0.589,4.81,1.774,6.319c1.181,1.497,2.857,2.253,4.992,2.253
		c2.198,0,3.943-0.757,5.239-2.273c1.297-1.504,1.937-3.548,1.937-6.121c0-2.584-0.64-4.631-1.937-6.138
		C301.892,21.415,300.147,20.66,297.949,20.66z M254.086,16.756h4.458l0.007,3.666c1.251-1.336,2.587-2.334,4.022-2.988
		c1.421-0.649,2.918-0.976,4.473-0.976c3.634,0,6.24,1.017,7.791,3.06c1.559,2.061,2.349,5.673,2.349,10.858v12.655h-4.478V30.075
		c0-3.691-0.395-6.223-1.235-7.564c-0.812-1.363-2.232-2.033-4.235-2.033c-1.573,0-2.971,0.34-4.199,0.999
		c-1.244,0.675-2.255,1.64-3.049,2.92c-0.523,0.85-0.893,1.819-1.105,2.924c-0.22,1.106-0.335,2.871-0.335,5.277v0.787v9.646h-4.458
		L254.086,16.756z M238.562,39.646c-1.074,1.249-2.314,2.183-3.712,2.807c-1.389,0.608-2.916,0.927-4.592,0.927
		c-2.794,0-5.061-0.751-6.755-2.273c-1.693-1.499-2.544-3.491-2.544-5.959c0-3.004,1.254-5.2,3.729-6.598
		c2.494-1.392,6.402-2.092,11.691-2.092c0.273,0,0.619,0.02,1.108,0.036c0.474,0.02,0.843,0.036,1.074,0.036v-0.19
		c0-2.073-0.528-3.581-1.563-4.513c-1.044-0.933-2.733-1.395-5.053-1.395c-1.29,0-2.264,0.166-2.972,0.504
		c-0.697,0.327-1.163,0.853-1.397,1.548h-4.912c0.232-2.031,1.162-3.581,2.753-4.628c1.601-1.048,3.803-1.571,6.636-1.571
		c3.799,0,6.548,0.819,8.272,2.46c1.732,1.635,2.595,4.245,2.595,7.842v16.445h-4.357V39.646z M238.562,30.759
		c-0.348-0.04-0.812-0.056-1.389-0.082c-0.801-0.048-1.317-0.063-1.559-0.063c-3.334,0-5.817,0.398-7.441,1.166
		c-1.621,0.771-2.433,1.942-2.433,3.535c0,1.124,0.416,2.043,1.29,2.77c0.862,0.72,1.978,1.088,3.345,1.088
		c2.297,0,4.214-0.787,5.743-2.335C237.645,35.275,238.457,33.257,238.562,30.759z M198.277,5.017h6.641v5.942h-6.641V5.017z
		 M200.044,21.401h-8.106v-4.297h12.869l0.007,25.927h-4.77V21.401z M157.659,16.756h4.469v3.091c0.97-1.17,2.055-2.017,3.268-2.587
		c1.205-0.575,2.517-0.857,3.976-0.857c2.391,0,4.265,0.7,5.594,2.115c1.356,1.416,2.005,3.397,2.005,5.929v0.186h-4.518v-0.347
		c0-1.201-0.292-2.131-0.871-2.8c-0.562-0.669-1.35-0.993-2.382-0.993c-2.137,0-3.842,0.963-5.139,2.904
		c-1.286,1.921-1.932,4.559-1.932,7.894v11.74h-4.461L157.659,16.756z M130.932,12.788h-9.278V8.182h23.585v4.606h-9.308
		l0.008,30.244h-5.004L130.932,12.788z M99.086,5.017h6.647v5.942h-6.647V5.017z M100.848,21.401h-8.094v-4.297h12.857v25.927
		h-4.763V21.401z"/>
	<path fill="#414141" d="M374.733,73.57v-6.15h1.871v15.627h-1.77v-1.441c-0.49,0.583-1.005,0.999-1.559,1.252
		c-0.57,0.264-1.236,0.386-2.04,0.386c-1.425,0-2.553-0.504-3.373-1.498c-0.82-0.998-1.235-2.376-1.235-4.127
		c0-1.702,0.415-3.048,1.262-4.034c0.835-0.993,1.968-1.486,3.4-1.486c0.684,0,1.316,0.12,1.882,0.373
		C373.752,72.716,374.269,73.077,374.733,73.57 M371.588,73.851c-0.912,0-1.639,0.334-2.186,1.018
		c-0.547,0.677-0.82,1.586-0.82,2.718c0,1.236,0.254,2.18,0.789,2.858c0.524,0.679,1.266,1.015,2.217,1.015
		c0.978,0,1.736-0.346,2.313-1.029c0.575-0.685,0.851-1.608,0.851-2.78c0-1.17-0.276-2.099-0.851-2.774
		C373.321,74.186,372.556,73.851,371.588,73.851z M351.222,78.883v-4.827h-2.229v-1.736h2.37v-2.726l1.864-0.529v3.255h3.754v1.736
		h-3.892v4.858c0,0.905,0.119,1.542,0.381,1.916c0.258,0.377,0.693,0.562,1.297,0.562c0.285,0,0.631-0.061,0.977-0.169
		c0.374-0.123,0.766-0.302,1.236-0.562v1.845c-0.447,0.21-0.898,0.373-1.351,0.456c-0.443,0.116-0.913,0.162-1.386,0.162
		c-0.577,0-1.093-0.108-1.541-0.338c-0.434-0.233-0.781-0.547-1.035-0.978c-0.161-0.266-0.28-0.554-0.346-0.887
		c-0.069-0.334-0.099-0.83-0.099-1.491V78.883z M330.185,68.594h2.047v12.43h7.295v1.905h-9.342V68.594z M298.481,78.883v-4.827
		h-2.221v-1.736h2.372v-2.726l1.867-0.529v3.255h3.757v1.736h-3.911v4.858c0,0.905,0.143,1.542,0.398,1.916
		c0.25,0.377,0.688,0.562,1.285,0.562c0.304,0,0.636-0.061,0.989-0.169c0.358-0.123,0.782-0.302,1.239-0.562v1.845
		c-0.446,0.21-0.912,0.373-1.351,0.456c-0.45,0.116-0.912,0.162-1.394,0.162c-0.577,0-1.086-0.108-1.524-0.338
		c-0.45-0.233-0.785-0.547-1.059-0.978c-0.154-0.266-0.269-0.554-0.338-0.887c-0.071-0.334-0.109-0.83-0.109-1.491V78.883z
		 M276.011,72.247h2.01l3.299,9.262h0.165l3.303-9.262h1.905l-3.941,10.8h-2.794L276.011,72.247z M257.978,68.716h4.943
		c1.508,0,2.682,0.368,3.534,1.107c0.836,0.733,1.258,1.745,1.258,3.035c0,1.282-0.403,2.29-1.215,3.047
		c-0.812,0.745-1.914,1.114-3.315,1.114h-3.149v6.028h-2.055V68.716z M260.033,70.556v4.613h2.318c1.136,0,1.929-0.169,2.413-0.522
		c0.47-0.369,0.72-0.949,0.72-1.761c0-0.787-0.254-1.357-0.732-1.732c-0.492-0.406-1.216-0.597-2.187-0.597H260.033z M230.94,76.353
		c0-0.842-0.151-1.468-0.455-1.899c-0.304-0.415-0.742-0.635-1.351-0.635c-1.008,0-1.72,0.404-2.166,1.211
		c-0.435,0.812-0.671,2.162-0.671,4.046v3.97h-1.825V67.419h1.825v5.982c0.436-0.409,0.893-0.726,1.409-0.947
		c0.527-0.223,1.032-0.333,1.551-0.333c1.159,0,2.044,0.333,2.645,1.033c0.6,0.687,0.904,1.685,0.904,3.011v6.882h-1.867V76.353z
		 M213.945,75.225h-2.001c-0.051-0.462-0.208-0.827-0.501-1.071c-0.285-0.252-0.69-0.369-1.217-0.369
		c-0.859,0-1.486,0.295-1.902,0.894c-0.415,0.593-0.611,1.507-0.611,2.741c0,1.362,0.185,2.377,0.581,3.062
		c0.394,0.685,0.989,1.028,1.772,1.028c0.581,0,1.025-0.154,1.34-0.471c0.331-0.296,0.504-0.771,0.558-1.384h2.074
		c-0.039,1.144-0.412,2.017-1.098,2.626c-0.703,0.608-1.671,0.904-2.913,0.904c-1.328,0-2.372-0.475-3.13-1.471
		c-0.751-0.965-1.127-2.325-1.127-4.062c0-1.809,0.397-3.172,1.173-4.112c0.785-0.932,1.949-1.394,3.464-1.394
		c1.071,0,1.921,0.27,2.533,0.807C213.56,73.483,213.894,74.244,213.945,75.225z M192.876,80.691h2.214
		c-0.134,0.789-0.539,1.4-1.22,1.855c-0.698,0.447-1.579,0.666-2.661,0.666c-1.605,0-2.859-0.487-3.784-1.466
		c-0.919-0.993-1.374-2.363-1.374-4.127c0-1.717,0.455-3.073,1.358-4.056c0.917-0.995,2.145-1.487,3.677-1.487
		c1.451,0,2.563,0.499,3.345,1.51c0.797,1.006,1.174,2.458,1.174,4.342v0.066h-7.487v0.126c0,1.06,0.274,1.871,0.82,2.47
		c0.554,0.605,1.298,0.894,2.259,0.894c0.455,0,0.82-0.062,1.105-0.199C192.596,81.156,192.781,80.952,192.876,80.691z
		 M193.601,76.317c-0.086-0.827-0.366-1.466-0.82-1.913c-0.458-0.452-1.075-0.673-1.829-0.673c-0.74,0-1.359,0.222-1.845,0.673
		c-0.503,0.458-0.819,1.091-0.989,1.913H193.601z M170.13,78.883v-4.827h-2.228v-1.736h2.372v-2.726l1.855-0.529v3.255h3.776v1.736
		h-3.911v4.858c0,0.905,0.13,1.542,0.385,1.916c0.261,0.377,0.682,0.562,1.29,0.562c0.312,0,0.635-0.061,0.993-0.169
		c0.362-0.123,0.765-0.302,1.243-0.562v1.845c-0.454,0.21-0.908,0.373-1.355,0.456c-0.449,0.116-0.912,0.162-1.397,0.162
		c-0.577,0-1.089-0.108-1.524-0.338c-0.443-0.233-0.796-0.547-1.051-0.978c-0.162-0.266-0.277-0.554-0.346-0.887
		c-0.07-0.334-0.101-0.83-0.101-1.491V78.883z M158.109,77.651c0,1.681-0.465,3.03-1.409,4.042
		c-0.927,1.016-2.167,1.519-3.702,1.519c-1.521,0-2.756-0.503-3.689-1.519c-0.942-1.012-1.408-2.361-1.408-4.042
		c0-1.681,0.481-3.024,1.408-4.056c0.947-1.028,2.175-1.542,3.689-1.542c1.535,0,2.775,0.515,3.702,1.532
		C157.643,74.609,158.109,75.965,158.109,77.651z M152.997,81.509c0.977,0,1.747-0.345,2.316-1.042c0.578-0.7,0.87-1.64,0.87-2.816
		c0-1.196-0.292-2.129-0.87-2.827c-0.589-0.7-1.347-1.04-2.316-1.04c-0.956,0-1.718,0.339-2.295,1.04
		c-0.578,0.697-0.878,1.631-0.878,2.827c0,1.176,0.3,2.116,0.878,2.816C151.279,81.164,152.042,81.509,152.997,81.509z
		 M133.083,73.981h-3.033v-1.732h3.01c-0.012-0.112-0.019-0.204-0.019-0.327c-0.012-0.115-0.02-0.274-0.02-0.493
		c0-1.446,0.365-2.463,1.082-3.09c0.719-0.613,1.925-0.92,3.58-0.92h0.396v1.701c-1.235,0.02-2.078,0.205-2.525,0.554
		c-0.447,0.339-0.665,1.011-0.665,1.953c0,0,0,0.062,0.015,0.205c0.012,0.136,0.012,0.266,0.012,0.416h3.163v1.732h-3.163v9.07
		h-1.834V73.981z M110.426,72.249h1.844v1.51c0.508-0.553,1.063-0.964,1.651-1.23c0.589-0.268,1.206-0.405,1.844-0.405
		c1.497,0,2.564,0.419,3.203,1.262c0.647,0.845,0.97,2.326,0.97,4.469v5.196h-1.845v-5.334c0-1.507-0.168-2.546-0.515-3.101
		c-0.336-0.567-0.913-0.832-1.737-0.832c-0.646,0-1.22,0.132-1.728,0.401c-0.52,0.273-0.936,0.677-1.248,1.202
		c-0.214,0.353-0.377,0.751-0.457,1.202c-0.082,0.467-0.139,1.179-0.139,2.175v0.312v3.974h-1.844V72.249z M92.65,81.024h2.594
		V70.56h-2.148v-1.845h6.393v1.845h-2.17v10.463h2.624v1.907H92.65V81.024z"/>
	<path fill="#414141" stroke="#B0B3B5" stroke-width="0.2999" stroke-miterlimit="2.6131" d="M375.776,88.413H93.47 M93.47,62.249
		h282.306"/>
	<path fill="#414141" d="M375.56,106.998c-0.13-0.063-0.261-0.114-0.396-0.155c-0.139-0.032-0.269-0.042-0.422-0.042
		c-0.528,0-0.944,0.228-1.256,0.663c-0.315,0.455-0.535,1.144-0.658,2.075l-0.438,3.296h-1.186l0.916-6.965h1.2l-0.191,1.105
		c0.327-0.475,0.642-0.819,0.973-1.041c0.323-0.215,0.682-0.317,1.074-0.317c0.111,0,0.231,0.02,0.339,0.035
		c0.128,0.034,0.243,0.064,0.355,0.11L375.56,106.998z M363.697,108.569c-0.007-0.639-0.172-1.121-0.516-1.472
		c-0.327-0.327-0.8-0.495-1.401-0.495c-0.596,0-1.112,0.173-1.547,0.534c-0.439,0.345-0.72,0.831-0.852,1.434H363.697z
		 M364.86,109.557l-5.589,0.014v0.117c0,0.743,0.193,1.328,0.574,1.758c0.386,0.423,0.912,0.638,1.571,0.638
		c0.407,0,0.781-0.091,1.124-0.285c0.346-0.212,0.673-0.516,1.005-0.931l0.842,0.68c-0.404,0.536-0.854,0.932-1.34,1.185
		c-0.493,0.276-1.02,0.402-1.59,0.402c-1.055,0-1.867-0.32-2.475-0.938c-0.615-0.634-0.912-1.471-0.912-2.547
		c0-1.162,0.338-2.123,1.057-2.886c0.708-0.764,1.601-1.147,2.672-1.147c0.967,0,1.733,0.297,2.272,0.894
		c0.535,0.587,0.811,1.425,0.811,2.5c0,0.152,0,0.266-0.01,0.335C364.872,109.417,364.86,109.499,364.86,109.557z M345.882,105.869
		h1.298l1.496,4.843l2.773-4.843h1.378l-4.482,7.387L345.882,105.869z M337.495,112.834l0.919-6.965h1.216l-0.923,6.965H337.495z
		 M338.483,102.574c0-0.223,0.086-0.422,0.255-0.585c0.173-0.154,0.366-0.246,0.588-0.246c0.235,0,0.428,0.092,0.589,0.246
		c0.162,0.153,0.243,0.355,0.243,0.585c0,0.227-0.081,0.431-0.243,0.599c-0.161,0.164-0.354,0.246-0.589,0.246
		c-0.222,0-0.414-0.082-0.588-0.246C338.569,102.996,338.483,102.801,338.483,102.574z M329.904,112.834h-1.222l1.552-11.806h1.229
		L329.904,112.834z M321.154,108.569c-0.008-0.639-0.181-1.121-0.512-1.472c-0.339-0.327-0.805-0.495-1.409-0.495
		c-0.601,0-1.117,0.173-1.551,0.534c-0.427,0.345-0.712,0.831-0.843,1.434H321.154z M322.312,109.557l-5.585,0.014v0.117
		c0,0.743,0.193,1.328,0.577,1.758c0.377,0.423,0.9,0.638,1.571,0.638c0.395,0,0.772-0.091,1.117-0.285
		c0.346-0.212,0.68-0.516,0.999-0.931l0.843,0.68c-0.404,0.536-0.858,0.932-1.335,1.185c-0.489,0.276-1.025,0.402-1.59,0.402
		c-1.047,0-1.867-0.32-2.475-0.938c-0.615-0.634-0.921-1.471-0.921-2.547c0-1.162,0.352-2.123,1.064-2.886
		c0.708-0.764,1.601-1.147,2.675-1.147c0.97,0,1.724,0.297,2.267,0.894c0.539,0.587,0.819,1.425,0.819,2.5
		c0,0.152,0,0.266-0.015,0.335C322.324,109.417,322.312,109.499,322.312,109.557z M308.65,101.028h1.191l-1.544,11.806h-1.212
		l0.168-1.047c-0.334,0.444-0.719,0.784-1.127,1.004c-0.412,0.217-0.889,0.325-1.416,0.325c-0.9,0-1.62-0.325-2.179-0.977
		c-0.558-0.654-0.828-1.487-0.828-2.533c0-1.161,0.331-2.105,1.013-2.861c0.685-0.751,1.54-1.129,2.564-1.129
		c0.627,0,1.147,0.143,1.563,0.413c0.434,0.276,0.747,0.685,0.977,1.242L308.65,101.028z M305.133,112.002
		c0.673,0,1.251-0.286,1.716-0.851c0.478-0.565,0.708-1.26,0.708-2.092c0-0.705-0.18-1.278-0.554-1.712
		c-0.369-0.445-0.843-0.667-1.431-0.667c-0.782,0-1.417,0.282-1.902,0.828c-0.481,0.545-0.731,1.233-0.731,2.097
		c0,0.715,0.219,1.293,0.616,1.737C303.958,111.776,304.486,112.002,305.133,112.002z M271.451,107.037
		c0-0.631,0.214-1.156,0.658-1.595c0.447-0.444,0.986-0.654,1.601-0.654c0.612,0,1.159,0.21,1.583,0.654
		c0.453,0.439,0.658,0.974,0.658,1.595c0,0.617-0.204,1.154-0.658,1.583c-0.435,0.461-0.971,0.675-1.598,0.675
		c-0.627,0-1.154-0.214-1.586-0.675C271.665,108.198,271.451,107.654,271.451,107.037z M244.135,108.569
		c0-0.639-0.178-1.121-0.508-1.472c-0.335-0.327-0.809-0.495-1.401-0.495c-0.604,0-1.112,0.173-1.556,0.534
		c-0.438,0.345-0.712,0.831-0.847,1.434H244.135z M245.289,109.557l-5.573,0.014v0.117c0,0.743,0.193,1.328,0.57,1.758
		c0.38,0.423,0.9,0.638,1.559,0.638c0.404,0,0.797-0.091,1.143-0.285c0.346-0.212,0.669-0.516,1.001-0.931l0.831,0.68
		c-0.405,0.536-0.847,0.932-1.336,1.185c-0.489,0.276-1.024,0.402-1.598,0.402c-1.039,0-1.86-0.32-2.468-0.938
		c-0.619-0.634-0.919-1.471-0.919-2.547c0-1.162,0.346-2.123,1.062-2.886c0.708-0.764,1.601-1.147,2.664-1.147
		c0.978,0,1.744,0.297,2.275,0.894c0.543,0.587,0.808,1.425,0.808,2.5c0,0.152,0,0.266-0.007,0.335
		C245.301,109.417,245.289,109.499,245.289,109.557z M226.733,111.818l0.769-0.915c0.258,0.401,0.539,0.721,0.864,0.915
		c0.322,0.204,0.68,0.321,1.072,0.321c0.435,0,0.774-0.107,1.036-0.311c0.262-0.2,0.385-0.457,0.385-0.807
		c0-0.37-0.362-0.741-1.081-1.075c-0.185-0.074-0.323-0.146-0.428-0.202c-0.677-0.327-1.105-0.617-1.336-0.894
		c-0.223-0.276-0.327-0.618-0.327-1.032c0-0.639,0.242-1.175,0.712-1.574c0.473-0.419,1.081-0.628,1.812-0.628
		c0.474,0,0.902,0.091,1.305,0.265c0.386,0.162,0.751,0.425,1.067,0.761l-0.724,0.879c-0.22-0.287-0.465-0.493-0.75-0.649
		c-0.293-0.148-0.624-0.215-0.979-0.215c-0.353,0-0.65,0.105-0.885,0.304c-0.239,0.204-0.374,0.439-0.374,0.712
		c0,0.374,0.435,0.751,1.29,1.117c0.05,0.015,0.096,0.038,0.131,0.048c0.685,0.294,1.144,0.577,1.378,0.879
		c0.231,0.296,0.347,0.663,0.347,1.136c0,0.708-0.228,1.26-0.675,1.671c-0.465,0.407-1.086,0.609-1.873,0.609
		c-0.598,0-1.105-0.108-1.559-0.325C227.463,112.599,227.067,112.267,226.733,111.818z M218.506,112.834l0.919-6.965h1.216
		l-0.928,6.965H218.506z M219.499,102.574c0-0.223,0.093-0.422,0.254-0.585c0.17-0.154,0.362-0.246,0.589-0.246
		c0.231,0,0.435,0.092,0.585,0.246c0.162,0.153,0.246,0.355,0.246,0.585c0,0.227-0.084,0.431-0.246,0.599
		c-0.15,0.164-0.354,0.246-0.585,0.246c-0.227,0-0.419-0.082-0.589-0.246C219.592,102.996,219.499,102.801,219.499,102.574z
		 M205.484,112.834l0.558-4.281c0.023-0.108,0.038-0.209,0.042-0.312c0-0.112,0-0.219,0-0.324c0-0.416-0.1-0.729-0.315-0.955
		c-0.224-0.212-0.528-0.32-0.95-0.32c-0.547,0-0.993,0.228-1.321,0.675c-0.323,0.439-0.543,1.108-0.671,1.987l-0.472,3.53h-1.198
		l0.932-6.965h1.166l-0.173,1.077c0.34-0.456,0.705-0.791,1.086-1.004c0.405-0.214,0.819-0.327,1.286-0.327
		c0.47,0,0.862,0.112,1.185,0.347c0.336,0.235,0.547,0.547,0.659,0.96c0.339-0.433,0.723-0.768,1.139-0.98
		c0.411-0.214,0.846-0.327,1.324-0.327c0.597,0,1.066,0.179,1.416,0.551c0.339,0.352,0.52,0.861,0.52,1.486
		c0,0.154-0.026,0.373-0.057,0.705c0,0.036,0,0.066,0,0.074l-0.59,4.401h-1.216l0.573-4.265c0-0.112,0.016-0.215,0.031-0.322
		c0-0.112,0-0.22,0-0.329c0-0.416-0.107-0.729-0.323-0.955c-0.212-0.212-0.528-0.32-0.958-0.32c-0.563,0-1.005,0.228-1.313,0.644
		c-0.319,0.419-0.535,1.102-0.659,2.017l-0.473,3.53H205.484z M192.41,112.834l0.925-6.965h1.216l-0.923,6.965H192.41z
		 M193.408,102.574c0-0.223,0.088-0.422,0.25-0.585c0.173-0.154,0.373-0.246,0.581-0.246c0.243,0,0.436,0.092,0.597,0.246
		c0.162,0.153,0.243,0.355,0.243,0.585c0,0.227-0.08,0.431-0.243,0.599c-0.161,0.164-0.354,0.246-0.597,0.246
		c-0.208,0-0.407-0.082-0.581-0.246C193.496,102.996,193.408,102.801,193.408,102.574z M183.142,112.834l0.78-5.951h-1.285
		l0.126-1.014h1.302l0.354-2.812h1.248l-0.386,2.812h1.54l-0.134,1.014h-1.54l-0.789,5.951H183.142z M168.448,116.225l1.355-10.355
		h1.22l-0.153,1.086c0.335-0.455,0.711-0.8,1.124-1.012c0.417-0.214,0.881-0.327,1.397-0.327c0.87,0,1.594,0.327,2.152,0.98
		c0.577,0.644,0.858,1.494,0.858,2.514c0,1.137-0.334,2.079-1.02,2.84c-0.669,0.767-1.52,1.156-2.533,1.156
		c-0.631,0-1.147-0.134-1.571-0.41c-0.408-0.271-0.731-0.684-0.958-1.233l-0.616,4.761H168.448z M172.967,106.75
		c-0.677,0-1.258,0.287-1.72,0.843c-0.482,0.559-0.711,1.256-0.711,2.093c0,0.695,0.179,1.26,0.554,1.696
		c0.377,0.435,0.854,0.639,1.443,0.639c0.778,0,1.405-0.263,1.902-0.803c0.501-0.547,0.743-1.243,0.743-2.079
		c0-0.707-0.212-1.284-0.617-1.727C174.145,106.975,173.618,106.75,172.967,106.75z M155.172,109.637
		c0-1.142,0.365-2.105,1.128-2.866c0.75-0.767,1.678-1.154,2.786-1.154c1.021,0,1.856,0.317,2.514,0.955
		c0.658,0.634,0.982,1.435,0.982,2.381c0,1.231-0.348,2.245-1.078,3.019c-0.74,0.772-1.67,1.163-2.827,1.163
		c-1.063,0-1.917-0.325-2.552-0.959C155.488,111.538,155.172,110.684,155.172,109.637z M159.033,106.602
		c-0.762,0-1.397,0.281-1.902,0.846c-0.501,0.561-0.743,1.279-0.743,2.159c0,0.763,0.212,1.379,0.646,1.857
		c0.436,0.469,1.009,0.699,1.718,0.699c0.758,0,1.397-0.281,1.894-0.841c0.485-0.577,0.739-1.279,0.739-2.156
		c0-0.741-0.223-1.358-0.65-1.845C160.287,106.837,159.733,106.602,159.033,106.602z M124.984,107.037
		c0-0.629,0.216-1.156,0.67-1.595c0.429-0.434,0.97-0.654,1.59-0.654c0.62,0,1.147,0.22,1.581,0.654
		c0.455,0.439,0.659,0.978,0.659,1.595c0,0.617-0.216,1.154-0.659,1.589c-0.446,0.455-0.981,0.679-1.589,0.679
		c-0.628,0-1.16-0.224-1.594-0.679C125.2,108.198,124.984,107.654,124.984,107.037z M97.666,108.574
		c-0.008-0.639-0.174-1.126-0.509-1.468c-0.335-0.334-0.797-0.503-1.409-0.503c-0.592,0-1.112,0.179-1.548,0.534
		c-0.434,0.345-0.719,0.831-0.843,1.438H97.666z M98.82,109.559l-5.57,0.011v0.117c0,0.743,0.18,1.328,0.566,1.763
		c0.385,0.429,0.908,0.639,1.558,0.639c0.416,0,0.793-0.096,1.148-0.291c0.335-0.204,0.665-0.516,0.993-0.925l0.843,0.683
		c-0.415,0.533-0.862,0.924-1.344,1.187c-0.48,0.265-1.027,0.393-1.596,0.393c-1.043,0-1.875-0.314-2.471-0.94
		c-0.613-0.629-0.917-1.471-0.917-2.547c0-1.154,0.359-2.117,1.066-2.886c0.701-0.764,1.601-1.147,2.664-1.147
		c0.973,0,1.736,0.303,2.279,0.898c0.539,0.59,0.812,1.426,0.812,2.499c0,0.153,0,0.263,0,0.331
		C98.851,109.417,98.832,109.499,98.82,109.559z M82.995,112.834l0.785-5.949h-1.298l0.147-1.008h1.286l0.361-2.816h1.22
		l-0.365,2.816h1.532l-0.131,1.008h-1.531l-0.804,5.949H82.995z M75.046,105.877h1.198l-0.909,6.957h-1.22l0.174-1.044
		c-0.344,0.447-0.713,0.781-1.116,1.001c-0.424,0.223-0.902,0.325-1.429,0.325c-0.893,0-1.621-0.325-2.179-0.977
		c-0.558-0.654-0.839-1.487-0.839-2.533c0-1.155,0.344-2.105,1.032-2.856c0.669-0.751,1.532-1.134,2.556-1.134
		c0.628,0,1.144,0.143,1.571,0.413c0.424,0.278,0.747,0.69,0.982,1.249L75.046,105.877z M72.164,112.009
		c0.676,0,1.254-0.293,1.72-0.85c0.474-0.567,0.721-1.267,0.721-2.099c0-0.7-0.185-1.278-0.559-1.712
		c-0.374-0.435-0.854-0.659-1.448-0.659c-0.769,0-1.401,0.278-1.898,0.833c-0.492,0.538-0.73,1.238-0.73,2.084
		c0,0.715,0.196,1.293,0.619,1.737C70.978,111.776,71.512,112.009,72.164,112.009z M56.466,105.877h1.293l1.494,4.835l2.768-4.835
		h1.393l-4.484,7.379L56.466,105.877z M43.008,109.641c0-1.138,0.384-2.099,1.132-2.87c0.753-0.759,1.686-1.154,2.798-1.154
		c1.013,0,1.848,0.317,2.502,0.96c0.669,0.633,0.998,1.432,0.998,2.376c0,1.236-0.37,2.245-1.09,3.026
		c-0.727,0.769-1.671,1.157-2.826,1.157c-1.055,0-1.905-0.327-2.551-0.953C43.324,111.538,43.008,110.694,43.008,109.641z
		 M46.877,106.602c-0.77,0-1.399,0.283-1.902,0.846c-0.489,0.569-0.755,1.282-0.755,2.159c0,0.772,0.227,1.379,0.654,1.857
		c0.444,0.469,1.013,0.699,1.721,0.699c0.769,0,1.39-0.281,1.894-0.841c0.495-0.567,0.746-1.279,0.746-2.15
		c0-0.747-0.22-1.364-0.658-1.851C48.143,106.837,47.569,106.602,46.877,106.602z M29.712,112.834l0.92-6.957h1.167l-0.173,1.128
		c0.388-0.477,0.793-0.827,1.228-1.054c0.424-0.222,0.894-0.335,1.398-0.335c0.669,0,1.189,0.179,1.581,0.557
		c0.386,0.355,0.585,0.856,0.585,1.481c0,0.108,0,0.246-0.016,0.368c-0.003,0.13-0.03,0.268-0.049,0.419l-0.581,4.393h-1.212
		l0.547-4.261c0.015-0.048,0.015-0.092,0.015-0.148c0.031-0.255,0.046-0.416,0.046-0.501c0-0.411-0.123-0.727-0.378-0.95
		c-0.253-0.22-0.631-0.324-1.117-0.324c-0.638,0-1.155,0.223-1.531,0.677c-0.405,0.455-0.647,1.118-0.778,1.979l-0.474,3.528H29.712
		z M16.224,112.834l0.919-6.957h1.159l-0.165,1.128c0.396-0.477,0.793-0.827,1.22-1.054c0.428-0.222,0.9-0.335,1.409-0.335
		c0.67,0,1.194,0.179,1.578,0.557c0.385,0.355,0.581,0.856,0.581,1.481c0,0.108,0,0.246-0.015,0.368
		c-0.008,0.13-0.019,0.268-0.05,0.419l-0.574,4.393h-1.209l0.559-4.261c0-0.048,0-0.092,0-0.148
		c0.027-0.255,0.042-0.416,0.042-0.501c0-0.411-0.132-0.727-0.37-0.95c-0.262-0.22-0.635-0.324-1.121-0.324
		c-0.639,0-1.155,0.223-1.539,0.677c-0.401,0.455-0.643,1.118-0.77,1.979l-0.477,3.528H16.224z M7.478,112.834l0.916-6.957h1.225
		l-0.936,6.957H7.478z M8.472,102.579c0-0.227,0.08-0.421,0.245-0.589c0.17-0.154,0.367-0.243,0.586-0.243
		c0.242,0,0.438,0.089,0.601,0.243c0.149,0.163,0.243,0.362,0.243,0.589c0,0.223-0.093,0.426-0.243,0.595
		c-0.162,0.164-0.359,0.246-0.601,0.246c-0.219,0-0.416-0.082-0.586-0.246C8.552,102.996,8.472,102.801,8.472,102.579z"/>
	<linearGradient id="SVGID_1_" gradientUnits="userSpaceOnUse" x1="18.0629" y1="37.5264" x2="80.4805" y2="37.5264">
		<stop  offset="0" style="stop-color:#E82126"/>
		<stop  offset="1" style="stop-color:#F8B090"/>
		<stop  offset="1" style="stop-color:#E82126"/>
	</linearGradient>
	<path fill="url(#SVGID_1_)" d="M23.722,7.158c9.874,1.504,45.71,21.591,45.092,37.487C68.124,62.377,35.045,69.904,33.035,69.1
		s6.432,3.484,21.038-2.546c6.435-2.284,13.894-5.509,18.961-9.447c4.745-3.688,7.307-8.104,7.437-9.983
		c0.268-3.886-5.594-27.635-52.293-41.303c-6.298-2.094-10.116,1.94-10.116,1.94S21.745,6.857,23.722,7.158z"/>
	<linearGradient id="SVGID_2_" gradientUnits="userSpaceOnUse" x1="18.8983" y1="37.6266" x2="84.8365" y2="37.6266">
		<stop  offset="0" style="stop-color:#D22227"/>
		<stop  offset="0.5271" style="stop-color:#4B1111"/>
		<stop  offset="1" style="stop-color:#D22227"/>
	</linearGradient>
	<path fill="url(#SVGID_2_)" d="M22.306,5.552c16.869-0.22,56.893,23.147,53.878,40.634s-41.407,24.12-43.417,23.316
		s12.06,3.484,26.666-2.546c6.435-2.284,13.894-5.509,18.961-9.447c4.745-3.688,6.302-8.238,6.432-10.117
		c0.268-3.886-4.958-27.336-51.658-41.005C21.456,2.959,18.898,7.043,18.898,7.043S21.376,5.564,22.306,5.552z"/>
	<linearGradient id="SVGID_3_" gradientUnits="userSpaceOnUse" x1="5.9818" y1="52.7996" x2="63.8032" y2="52.7996">
		<stop  offset="0" style="stop-color:#EC8023"/>
		<stop  offset="1" style="stop-color:#FBBA6C"/>
		<stop  offset="1" style="stop-color:#F8B090"/>
		<stop  offset="1" style="stop-color:#EC8023"/>
	</linearGradient>
	<path fill="url(#SVGID_3_)" d="M17.932,88.547c0,0-6.868-1.776-6.064-23.082c0.804-21.306,4.015-34.857,10.849-38.073
		s9.095-2.634,22.116,3.501c7.501,3.534,17.281,7.32,18.889,10.536C65.33,44.645,42.823,12.4,20.713,17.627
		c-22.11,6.03-12.735,41.825-12.869,53.55C10.992,81.026,11.634,87.609,17.932,88.547z"/>
	<path fill="#462312" d="M63.722,41.429c0,0-29.555-26.415-40.873-23.681c-8.171,1.973-7.166,1.886-9.578,4.787
		C7.877,29.02,4.859,40.882,7.173,57.948c3.179,23.446,6.281,28.841,6.281,28.841s-19.38-38.902-4.137-69.974
		C22.447-9.95,63.722,37.409,63.722,41.429z"/>
	<path fill="#462312" d="M63.722,41.429c0,0-29.555-26.415-40.873-23.681c-8.171,1.973-7.166,1.886-9.578,4.787
		C7.877,29.02,4.859,40.882,7.173,57.948c3.179,23.446,6.281,28.841,6.281,28.841s-20.084-36.18-4.137-69.974
		C22.039-10.146,63.722,37.409,63.722,41.429z"/>
	<path fill="#21A2DC" d="M18.898,48.296c0,0-10.939,29.768,3.133,36.804c6.231,3.116,29.949-0.994,64.12-30.338
		c0,0-28.476,16.832-37.855,19.866c-18.645,6.03-24.271,7.663-26.868-6.311C19.501,57.944,18.898,48.296,18.898,48.296z"/>
	<path fill="#0D1B28" d="M17.893,49.619c0,0-12.364,31.556,1.709,38.592c6.231,3.116,29.828-1.946,63.999-31.289
		c0,0-27.718,19.631-37.165,22.445c-20.16,6.005-26.331,6.231-27.437-7.94S17.893,49.619,17.893,49.619z"/>
	<circle fill="#0D1B28" cx="21.307" cy="44.645" r="5.963"/>
	<circle fill="#21A2DC" cx="21.797" cy="43.69" r="6.164"/>
</g>
</svg>
