<?xml version="1.0" encoding="iso-8859-1"?>
<!-- Generator: Adobe Illustrator 17.0.0, SVG Export Plug-In . SVG Version: 6.00 Build 0)  -->
<!DOCTYPE svg PUBLIC "-//W3C//DTD SVG 1.1//EN" "http://www.w3.org/Graphics/SVG/1.1/DTD/svg11.dtd">
<svg version="1.1" id="Layer_1" xmlns="http://www.w3.org/2000/svg" xmlns:xlink="http://www.w3.org/1999/xlink" x="0px" y="0px"
	 width="94.291px" height="78.583px" viewBox="0 0 94.291 78.583" style="enable-background:new 0 0 94.291 78.583;"
	 xml:space="preserve">
<path d="M58.724,51.523c0,0.614,0,1.055,0,1.496c0,6.627-0.02,13.254,0.02,19.881c0.007,1.052-0.266,1.441-1.377,1.434
	c-6.664-0.043-13.329-0.043-19.993,0c-1.093,0.007-1.396-0.349-1.389-1.418c0.043-6.59,0.022-13.179,0.022-19.769
	c0-0.48,0-0.959,0-1.625c-1.209,0-2.317,0.04-3.422-0.011c-1.065-0.049-1.973-0.465-2.443-1.498c-0.422-0.927-0.309-1.851,0.3-2.647
	c0.676-0.884,1.683-1.024,2.724-1.024c8.387,0.003,16.773,0.001,25.16,0.001c1.16,0,2.322-0.016,3.482,0.004
	c1.685,0.03,2.969,1.156,2.981,2.582c0.011,1.395-1.332,2.573-2.971,2.592C60.851,51.532,59.883,51.523,58.724,51.523z"/>
<path d="M70.441,57.143c-0.396,3.407-0.771,6.661-1.153,9.913c-0.23,1.96-0.415,3.927-0.721,5.875
	c-0.258,1.644-1.951,2.872-3.404,2.603c-1.858-0.345-2.984-2.051-2.728-3.853c0.398-2.799,0.672-5.616,0.997-8.426
	c0.382-3.291,0.727-6.587,1.158-9.87c0.204-1.553,1.466-2.533,3.067-2.546c1.535-0.013,3.071,0.02,4.605-0.03
	c0.279-0.009,0.783-0.314,0.787-0.492c0.054-2.268,0.035-4.536,0.035-6.923c-0.325,0.116-0.522,0.137-0.652,0.24
	c-3.284,2.605-6.883,2.459-10.616,1.252c-1.125-0.364-2.168-0.762-2.656-2.004c-0.406-1.029-0.051-1.883,0.583-2.576
	c0.636-0.696,1.481-1.12,2.519-0.785c0.886,0.286,1.795,0.501,2.685,0.776c2.117,0.654,3.859-0.059,5.24-1.612
	c1.314-1.475,2.504-3.065,3.692-4.647c3.033-4.036,8.765-4.035,11.213,0.122c0.569,0.966,0.771,2.263,0.795,3.415
	c0.091,4.191-0.025,8.388,0.052,12.58c0.093,5.05-3.036,6.786-6.938,6.966c-2.429,0.112-4.867,0.021-7.301,0.021
	C71.302,57.143,70.903,57.143,70.441,57.143z"/>
<path d="M22.532,43.219c0,1.773,0,3.362,0,4.952c0,2.665,0,2.665,2.645,2.666c0.899,0,1.797-0.003,2.697,0.001
	c1.984,0.007,3.217,1.231,3.434,3.236c0.477,4.406,1.023,8.805,1.521,13.209c0.192,1.703,0.404,3.408,0.475,5.118
	c0.068,1.663-1.193,2.957-2.881,3.154c-1.33,0.156-2.932-1.003-3.165-2.483c-0.376-2.388-0.628-4.796-0.911-7.199
	c-0.318-2.7-0.59-5.405-0.957-8.098c-0.034-0.249-0.608-0.599-0.937-0.605c-2.545-0.05-5.093,0.001-7.639-0.038
	c-1.706-0.026-3.317-0.432-4.741-1.45c-1.38-0.987-2.111-2.339-2.124-3.998c-0.04-5.092-0.034-10.185-0.007-15.279
	c0.015-2.709,2.76-5.214,5.679-5.361c2.862-0.144,4.907,1.146,6.542,3.377c1.08,1.472,2.246,2.887,3.437,4.272
	c1.601,1.864,3.625,2.202,5.896,1.46c0.602-0.197,1.205-0.397,1.814-0.572c1.392-0.4,2.765,0.296,3.24,1.627
	c0.455,1.276-0.144,2.719-1.458,3.241c-4.089,1.623-8.111,2.061-11.879-0.866C23.075,43.478,22.906,43.417,22.532,43.219z"/>
<path d="M65.226,35.991c0.412,1.035,0.795,1.995,1.261,3.166c-1.008-0.823-1.918-1.422-2.644-2.196
	c-0.869-0.926-1.826-1.212-3.077-1.201c-6.361,0.057-12.724,0.028-19.086,0.025c-2.085-0.001-2.957-0.828-2.967-2.893
	c-0.021-4.042-0.024-8.084,0.001-12.126c0.013-2.198,0.824-2.973,2.985-2.973c7.747-0.001,15.493-0.001,23.24,0
	c2.056,0.001,2.774,0.711,2.775,2.75c0.003,3.967,0.001,7.934,0.001,11.901C67.716,34.974,67.645,35.078,65.226,35.991z
	 M59.193,28.164c1.125,0.007,1.996-0.794,1.976-1.818c-0.02-1.042-0.788-1.776-1.883-1.798c-1.196-0.025-1.915,0.655-1.91,1.806
	C57.381,27.429,58.112,28.157,59.193,28.164z M53.389,28.166c1.124-0.02,1.853-0.721,1.869-1.795c0.018-1.16-0.77-1.862-2.043-1.823
	c-1.126,0.034-1.714,0.694-1.683,1.886C51.561,27.561,52.232,28.187,53.389,28.166z M47.288,28.169
	c1.111-0.009,1.96-0.834,1.936-1.883c-0.023-1.015-0.824-1.734-1.936-1.739c-1.212-0.004-1.844,0.638-1.826,1.859
	C45.478,27.549,46.13,28.179,47.288,28.169z"/>
<path d="M28.86,23.542c0.513-1.283,0.911-2.279,1.313-3.282c-2.256-0.664-2.483-0.967-2.483-3.226c0-4.117-0.004-8.234,0.001-12.352
	c0.002-1.81,0.759-2.612,2.593-2.616c7.86-0.018,15.72-0.016,23.58-0.001c1.91,0.004,2.615,0.757,2.617,2.664
	c0.002,3.368-0.05,6.738,0.028,10.105c0.028,1.177-0.368,1.436-1.475,1.423c-4.94-0.056-9.881-0.027-14.821-0.023
	c-2.257,0.001-2.81,0.507-2.83,2.712c-0.007,0.825-0.305,1.253-1.117,1.093c-2.671-0.526-4.563,0.777-6.278,2.567
	C29.707,22.9,29.361,23.13,28.86,23.542z M42.171,12.172c1.131,0.019,1.915-0.729,1.928-1.841c0.012-1.048-0.863-1.949-1.894-1.951
	c-0.908-0.001-1.852,0.928-1.902,1.871C40.246,11.319,41.058,12.153,42.171,12.172z M49.945,10.294
	c-0.007-1.101-0.848-1.947-1.901-1.914c-0.929,0.03-1.851,0.965-1.872,1.897c-0.025,1.092,0.777,1.89,1.901,1.894
	C49.215,12.175,49.953,11.435,49.945,10.294z M36.061,12.172c1.132,0.028,1.938-0.711,1.968-1.803
	c0.027-0.991-0.892-1.969-1.868-1.99c-0.939-0.019-1.924,0.978-1.929,1.952C34.227,11.366,35.001,12.146,36.061,12.172z"/>
<path d="M87.263,57.956c0-0.551,0-0.994,0-1.437c0-6.405,0.003-12.811-0.002-19.216c-0.001-1.191,0.312-2.22,1.403-2.862
	c1.783-1.049,3.775,0.068,3.776,2.129c0.007,8.091,0.004,16.182,0,24.274c0,0.296,0.064,0.742-0.097,0.865
	c-1.284,0.985-0.526,2.107-0.4,3.269c0.201,1.853,0.129,3.738,0.147,5.609c0.01,1.01,0.02,2.025-0.063,3.03
	c-0.114,1.377-1.042,2.242-2.221,2.181c-1.105-0.057-2.077-1.131-2.088-2.375c-0.019-2.248-0.001-4.495-0.007-6.743
	c-0.004-1.76-0.735-2.524-2.519-2.551c-2.097-0.031-4.196-0.037-6.293,0.003c-1.833,0.034-2.414,0.66-2.416,2.453
	c-0.002,2.061,0.01,4.12-0.009,6.181c-0.004,0.441-0.061,0.899-0.191,1.318c-0.355,1.145-1.321,1.827-2.326,1.707
	c-0.949-0.113-1.998-1.114-1.947-2.164c0.163-3.378-0.595-6.808,0.534-10.142c0.085-0.251-0.132-0.698-0.341-0.941
	c-0.774-0.897-1.12-1.844-0.553-2.969c0.545-1.081,1.457-1.546,2.644-1.546c4.046,0.002,8.091,0.001,12.137-0.004
	C86.65,58.028,86.868,57.992,87.263,57.956z"/>
<path d="M8.372,46.798c0.001,3.371,0.028,6.743-0.016,10.113c-0.012,0.898,0.29,1.148,1.164,1.139
	c3.895-0.04,7.791,0.002,11.686-0.028c1.334-0.01,2.367,0.468,2.925,1.67c0.512,1.105,0.15,2.092-0.658,2.976
	c-0.197,0.215-0.26,0.646-0.228,0.961c0.11,1.067,0.387,2.123,0.423,3.189c0.07,2.058,0.027,4.12,0.017,6.18
	c-0.008,1.784-0.835,2.83-2.189,2.801c-1.264-0.028-2.121-1.15-2.123-2.786c-0.002-2.135,0.009-4.27-0.004-6.405
	c-0.01-1.641-0.736-2.433-2.377-2.469c-2.171-0.048-4.346-0.049-6.517-0.001c-1.757,0.039-2.329,0.679-2.331,2.414
	c-0.002,2.097,0.026,4.196-0.013,6.292c-0.018,0.981-0.185,1.945-1.124,2.55c-1.351,0.869-3.237,0.121-3.292-1.518
	c-0.103-3.056,0.001-6.127,0.174-9.183c0.055-0.965,0.632-1.87-0.319-2.739c-0.225-0.207-0.151-0.781-0.152-1.187
	c-0.007-8.053-0.006-16.107-0.005-24.16c0-1.493,0.954-2.564,2.314-2.608c1.313-0.043,2.625,1.253,2.635,2.685
	C8.386,40.055,8.37,43.426,8.372,46.798z"/>
<path d="M84.8,23.771c0.001,3.79-3.036,6.843-6.809,6.845c-3.744,0.002-6.894-3.098-6.914-6.805
	c-0.019-3.671,3.181-6.901,6.855-6.916C81.611,16.879,84.799,20.071,84.8,23.771z"/>
<path d="M24.571,23.809c-0.005,3.852-2.97,6.813-6.821,6.807c-3.684-0.007-6.866-2.786-6.816-6.848
	c0.051-4.099,3.032-6.76,6.857-6.848C21.53,16.833,24.577,20.029,24.571,23.809z"/>
<g>
</g>
<g>
</g>
<g>
</g>
<g>
</g>
<g>
</g>
<g>
</g>
<g>
</g>
<g>
</g>
<g>
</g>
<g>
</g>
<g>
</g>
</svg>
