<?xml version="1.0" encoding="iso-8859-1"?>
<!-- Generator: Adobe Illustrator 17.0.0, SVG Export Plug-In . SVG Version: 6.00 Build 0)  -->
<!DOCTYPE svg PUBLIC "-//W3C//DTD SVG 1.1//EN" "http://www.w3.org/Graphics/SVG/1.1/DTD/svg11.dtd">
<svg version="1.1" xmlns="http://www.w3.org/2000/svg" xmlns:xlink="http://www.w3.org/1999/xlink" x="0px" y="0px" width="125px"
	 height="125px" viewBox="0 0 125 125" style="enable-background:new 0 0 125 125;" xml:space="preserve">
<g id="Layer_1">
	<path d="M74.317,61.171c0,0.661,0,1.135,0,1.611c0,7.132-0.022,14.265,0.022,21.397c0.007,1.132-0.287,1.551-1.482,1.544
		c-7.173-0.047-14.345-0.046-21.518,0c-1.177,0.007-1.503-0.375-1.495-1.526c0.046-7.092,0.023-14.184,0.023-21.276
		c0-0.516,0-1.032,0-1.749c-1.301,0-2.494,0.043-3.683-0.012c-1.146-0.053-2.124-0.5-2.629-1.612
		c-0.454-0.998-0.333-1.992,0.323-2.849c0.727-0.951,1.812-1.102,2.932-1.102c9.026,0.003,18.053,0.002,27.079,0.002
		c1.249,0,2.499-0.018,3.748,0.005c1.813,0.032,3.195,1.244,3.208,2.779c0.012,1.501-1.433,2.769-3.198,2.789
		C76.607,61.181,75.565,61.171,74.317,61.171z"/>
	<path d="M86.928,67.22c-0.426,3.667-0.83,7.169-1.241,10.669c-0.247,2.109-0.447,4.226-0.775,6.323
		c-0.278,1.769-2.1,3.091-3.663,2.802c-2-0.371-3.211-2.207-2.936-4.147c0.428-3.013,0.723-6.044,1.073-9.068
		c0.411-3.542,0.782-7.089,1.247-10.623c0.22-1.672,1.578-2.727,3.301-2.74c1.652-0.014,3.306,0.022,4.956-0.032
		c0.3-0.01,0.843-0.337,0.847-0.529c0.058-2.441,0.038-4.882,0.038-7.451c-0.35,0.125-0.561,0.147-0.702,0.258
		c-3.534,2.804-7.408,2.646-11.426,1.347c-1.211-0.391-2.333-0.821-2.859-2.157c-0.436-1.107-0.055-2.027,0.627-2.773
		c0.684-0.749,1.594-1.206,2.711-0.845c0.953,0.308,1.932,0.54,2.89,0.835c2.279,0.704,4.153-0.064,5.64-1.735
		c1.414-1.588,2.694-3.299,3.973-5.002c3.265-4.344,9.434-4.343,12.069,0.131c0.612,1.04,0.829,2.436,0.856,3.675
		c0.098,4.511-0.027,9.028,0.056,13.54c0.1,5.435-3.267,7.303-7.467,7.497c-2.614,0.121-5.238,0.023-7.858,0.023
		C87.855,67.22,87.426,67.22,86.928,67.22z"/>
	<path d="M35.365,52.234c0,1.908,0,3.619,0,5.329c0,2.868,0,2.868,2.847,2.869c0.967,0,1.934-0.003,2.902,0.001
		c2.136,0.008,3.462,1.325,3.695,3.483c0.514,4.742,1.101,9.477,1.637,14.216c0.207,1.833,0.435,3.668,0.511,5.508
		c0.073,1.789-1.284,3.182-3.101,3.395c-1.432,0.168-3.155-1.079-3.406-2.672c-0.405-2.57-0.676-5.162-0.981-7.748
		c-0.342-2.905-0.635-5.817-1.03-8.716c-0.036-0.268-0.655-0.644-1.008-0.651c-2.74-0.054-5.482,0.002-8.221-0.041
		c-1.836-0.028-3.57-0.465-5.102-1.561c-1.486-1.062-2.272-2.517-2.286-4.303c-0.043-5.481-0.037-10.962-0.007-16.444
		c0.016-2.915,2.971-5.611,6.112-5.77c3.08-0.155,5.281,1.234,7.041,3.634c1.162,1.585,2.417,3.107,3.699,4.598
		c1.723,2.006,3.902,2.37,6.346,1.571c0.648-0.212,1.297-0.428,1.952-0.616c1.498-0.431,2.976,0.318,3.487,1.751
		c0.49,1.373-0.155,2.926-1.569,3.488c-4.401,1.747-8.73,2.218-12.785-0.933C35.95,52.512,35.768,52.447,35.365,52.234z"/>
	<path d="M81.316,44.455c0.444,1.114,0.855,2.147,1.358,3.408c-1.085-0.886-2.065-1.531-2.846-2.363
		c-0.935-0.997-1.965-1.305-3.312-1.292c-6.846,0.061-13.695,0.03-20.542,0.027c-2.244-0.001-3.182-0.891-3.194-3.114
		c-0.023-4.35-0.026-8.7,0.002-13.05c0.014-2.366,0.887-3.2,3.212-3.2c8.338-0.001,16.675-0.002,25.013,0
		c2.213,0.001,2.985,0.765,2.987,2.959c0.003,4.27,0.001,8.539,0.001,12.809C83.995,43.359,83.919,43.471,81.316,44.455z
		 M74.823,36.031c1.211,0.008,2.148-0.854,2.127-1.957c-0.022-1.122-0.848-1.911-2.027-1.935c-1.287-0.027-2.062,0.705-2.056,1.944
		C72.872,35.239,73.659,36.023,74.823,36.031z M68.576,36.033c1.21-0.022,1.994-0.775,2.012-1.932
		c0.019-1.248-0.829-2.004-2.198-1.962c-1.212,0.037-1.845,0.746-1.811,2.029C66.608,35.381,67.331,36.055,68.576,36.033z
		 M62.01,36.036c1.196-0.01,2.109-0.898,2.083-2.027c-0.025-1.093-0.887-1.867-2.084-1.871c-1.305-0.005-1.984,0.687-1.965,2
		C60.062,35.369,60.764,36.047,62.01,36.036z"/>
	<path d="M42.176,31.056c0.552-1.381,0.981-2.453,1.413-3.533c-2.428-0.715-2.672-1.041-2.672-3.472
		c0-4.431-0.004-8.862,0.002-13.294c0.002-1.948,0.817-2.811,2.79-2.815c8.459-0.019,16.919-0.018,25.378-0.002
		c2.056,0.004,2.814,0.815,2.816,2.868c0.002,3.625-0.054,7.252,0.031,10.876c0.03,1.267-0.396,1.545-1.587,1.532
		c-5.316-0.06-10.635-0.029-15.952-0.025c-2.429,0.002-3.025,0.545-3.046,2.919c-0.008,0.887-0.329,1.349-1.202,1.177
		c-2.875-0.566-4.911,0.837-6.756,2.763C43.088,30.365,42.716,30.613,42.176,31.056z M56.502,18.818
		c1.218,0.02,2.061-0.784,2.075-1.981c0.013-1.128-0.928-2.098-2.039-2.099c-0.977-0.002-1.993,0.999-2.047,2.013
		C54.431,17.9,55.305,18.798,56.502,18.818z M64.869,16.798c-0.008-1.185-0.913-2.095-2.046-2.06
		c-0.999,0.032-1.992,1.039-2.015,2.042c-0.027,1.176,0.836,2.034,2.046,2.038C64.084,18.823,64.878,18.026,64.869,16.798z
		 M49.926,18.818c1.218,0.031,2.086-0.765,2.118-1.941c0.029-1.067-0.96-2.119-2.01-2.141c-1.011-0.02-2.07,1.052-2.076,2.101
		C47.953,17.951,48.786,18.79,49.926,18.818z"/>
	<path d="M105.034,68.095c0-0.593,0-1.07,0-1.547c0-6.894,0.003-13.788-0.002-20.682c-0.001-1.282,0.336-2.389,1.51-3.08
		c1.919-1.129,4.063,0.073,4.064,2.292c0.008,8.708,0.004,17.417,0,26.125c0,0.319,0.068,0.799-0.104,0.931
		c-1.382,1.06-0.566,2.268-0.431,3.518c0.216,1.995,0.139,4.023,0.159,6.037c0.01,1.087,0.022,2.18-0.068,3.261
		c-0.122,1.482-1.121,2.413-2.391,2.347c-1.189-0.061-2.235-1.218-2.247-2.556c-0.021-2.419-0.002-4.838-0.008-7.257
		c-0.005-1.894-0.791-2.716-2.711-2.745c-2.257-0.033-4.516-0.039-6.773,0.003c-1.973,0.037-2.599,0.71-2.6,2.641
		c-0.002,2.218,0.011,4.435-0.01,6.652c-0.005,0.474-0.065,0.967-0.205,1.418c-0.383,1.232-1.422,1.966-2.504,1.838
		c-1.021-0.122-2.15-1.199-2.095-2.329c0.176-3.636-0.64-7.327,0.575-10.916c0.092-0.271-0.143-0.751-0.367-1.012
		c-0.833-0.966-1.206-1.984-0.595-3.195c0.587-1.164,1.568-1.664,2.846-1.664c4.354,0.002,8.708,0.001,13.062-0.004
		C104.374,68.172,104.609,68.133,105.034,68.095z"/>
	<path d="M20.125,56.085c0.002,3.629,0.03,7.257-0.018,10.884c-0.013,0.966,0.312,1.235,1.253,1.226
		c4.192-0.043,8.385,0.002,12.578-0.03c1.436-0.011,2.548,0.503,3.148,1.797c0.551,1.189,0.162,2.252-0.708,3.203
		c-0.212,0.232-0.28,0.695-0.246,1.034c0.118,1.148,0.416,2.285,0.456,3.432c0.076,2.215,0.029,4.434,0.019,6.651
		c-0.009,1.92-0.899,3.046-2.355,3.014c-1.36-0.03-2.283-1.238-2.285-2.999c-0.002-2.298,0.01-4.596-0.005-6.894
		c-0.01-1.766-0.792-2.619-2.558-2.657c-2.337-0.052-4.677-0.053-7.014-0.002c-1.891,0.042-2.507,0.731-2.508,2.599
		c-0.002,2.257,0.028,4.516-0.014,6.772c-0.019,1.056-0.199,2.094-1.21,2.744c-1.454,0.935-3.484,0.13-3.543-1.634
		c-0.111-3.29,0.001-6.594,0.187-9.883c0.059-1.039,0.68-2.012-0.343-2.948c-0.242-0.222-0.163-0.841-0.163-1.277
		c-0.008-8.667-0.006-17.335-0.006-26.002c0-1.607,1.027-2.76,2.491-2.806c1.413-0.046,2.826,1.348,2.836,2.89
		C20.141,48.829,20.124,52.457,20.125,56.085z"/>
	<path d="M102.383,31.303c0.002,4.079-3.268,7.365-7.329,7.368c-4.03,0.002-7.42-3.335-7.441-7.324
		c-0.021-3.952,3.424-7.427,7.378-7.444C98.951,23.885,102.381,27.321,102.383,31.303z"/>
	<path d="M37.56,31.344c-0.006,4.146-3.197,7.333-7.342,7.326c-3.965-0.007-7.39-2.998-7.336-7.37
		c0.055-4.412,3.263-7.276,7.38-7.371C34.287,23.835,37.567,27.276,37.56,31.344z"/>
</g>
<g id="Layer_2">
	<g>
		<path d="M42.498,53.959c-2.425,0-4.718,2.293-4.718,4.718v15.725c0,2.425,2.293,4.718,4.718,4.718h3.145
			c2.425,0,4.718-2.293,4.718-4.718c0-0.707,0.866-1.573,1.571-1.573h6.292c0.705,0,1.572,0.866,1.572,1.573
			c0,2.425,2.294,4.718,4.718,4.718h14.444c0.652,1.827,2.38,3.145,4.427,3.145c2.6,0,4.718-2.117,4.718-4.718
			c0-2.6-2.117-4.718-4.718-4.718c-2.047,0-3.775,1.318-4.427,3.145H64.512c-0.705,0-1.572-0.867-1.572-1.573
			c0-2.425-2.293-4.718-4.718-4.718h-6.292c-2.425,0-4.716,2.293-4.716,4.718c0,0.706-0.868,1.573-1.573,1.573h-3.145
			c-0.705,0-1.573-0.867-1.573-1.573V58.677c0-0.706,0.868-1.573,1.573-1.573c2.424,0,4.718-2.293,4.718-4.718
			c0-2.425-2.294-4.718-4.718-4.718c-0.705,0-1.573-0.867-1.573-1.572V33.516c0-0.707,0.868-1.573,1.573-1.573h40.885
			c0.705,0,1.573,0.866,1.573,1.573v25.16c0,0.705-0.869,1.572-1.573,1.572h-5.008c-0.473-1.332-1.52-2.381-2.854-2.856V47.38
			c1.825-0.653,3.145-2.381,3.145-4.428c0-2.6-2.116-4.718-4.718-4.718c-2.6,0-4.718,2.117-4.718,4.718
			c0,2.048,1.32,3.775,3.146,4.427v10.015c-1.333,0.475-2.381,1.524-2.854,2.856H58.223c-0.705,0-1.573-0.866-1.573-1.572v-5.007
			c1.825-0.652,3.145-2.381,3.145-4.428c0-2.602-2.117-4.718-4.718-4.718c-2.602,0-4.718,2.116-4.718,4.718
			c0,2.047,1.319,3.775,3.145,4.426v5.009c0,2.424,2.293,4.718,4.718,4.718h11.299c0.65,1.826,2.379,3.145,4.426,3.145
			c2.048,0,3.775-1.318,4.427-3.145h5.008c2.425,0,4.718-2.294,4.718-4.718V33.516c0-2.425-2.293-4.718-4.718-4.718H42.498
			c-2.425,0-4.718,2.293-4.718,4.718v12.58c0,2.425,2.293,4.718,4.718,4.718c0.705,0,1.572,0.867,1.572,1.572
			C44.07,53.092,43.202,53.959,42.498,53.959L42.498,53.959z M83.383,75.975c0.867,0,1.572,0.705,1.572,1.572
			c0,0.867-0.705,1.573-1.572,1.573c-0.869,0-1.573-0.706-1.573-1.573C81.811,76.68,82.515,75.975,83.383,75.975L83.383,75.975z
			 M55.078,50.814c-0.869,0-1.573-0.705-1.573-1.572c0-0.866,0.705-1.573,1.573-1.573c0.867,0,1.572,0.707,1.572,1.573
			C56.65,50.108,55.946,50.814,55.078,50.814L55.078,50.814z M73.948,41.379c0.868,0,1.573,0.705,1.573,1.572
			c0,0.866-0.705,1.573-1.573,1.573c-0.867,0-1.572-0.707-1.572-1.573C72.376,42.085,73.08,41.379,73.948,41.379L73.948,41.379z
			 M73.948,63.394c-0.867,0-1.572-0.707-1.572-1.573c0-0.867,0.705-1.573,1.572-1.573c0.868,0,1.573,0.707,1.573,1.573
			C75.52,62.688,74.816,63.394,73.948,63.394L73.948,63.394z"/>
		<path d="M108.544,41.379c0.869,0,1.573-0.705,1.573-1.573c0-0.867-0.704-1.572-1.573-1.572h-4.718v-6.29h4.718
			c0.869,0,1.573-0.705,1.573-1.572c0-0.868-0.704-1.573-1.573-1.573h-4.718v-7.862c0-4.042-3.822-7.863-7.862-7.863h-7.862V8.357
			c0-0.868-0.703-1.573-1.573-1.573c-0.869,0-1.572,0.705-1.572,1.573v4.717h-6.291V8.357c0-0.868-0.703-1.573-1.572-1.573
			c-0.87,0-1.573,0.705-1.573,1.573v4.717h-6.29V8.357c0-0.868-0.703-1.573-1.573-1.573c-0.869,0-1.572,0.705-1.572,1.573v4.717
			h-6.291V8.357c0-0.868-0.703-1.573-1.572-1.573c-0.87,0-1.573,0.705-1.573,1.573v4.717h-6.29V8.357
			c0-0.868-0.703-1.573-1.573-1.573c-0.869,0-1.573,0.705-1.573,1.573v4.717h-6.29V8.357c-0.001-0.868-0.703-1.573-1.574-1.573
			c-0.869,0-1.572,0.705-1.572,1.573v4.717h-7.862c-4.042,0-7.863,3.822-7.863,7.863v7.862h-4.717c-0.87,0-1.573,0.705-1.573,1.572
			c0,0.869,0.703,1.573,1.573,1.573h4.717v6.29h-4.717c-0.87,0.001-1.573,0.705-1.573,1.573c0,0.869,0.703,1.573,1.573,1.573h4.717
			v6.29h-4.717c-0.87,0-1.573,0.705-1.573,1.573c0,0.869,0.703,1.572,1.573,1.572h4.717v6.29h-4.717
			c-0.87,0-1.573,0.705-1.573,1.573c0,0.867,0.703,1.572,1.573,1.572h4.717v6.291h-4.717c-0.87,0-1.573,0.705-1.573,1.572
			c0,0.869,0.703,1.573,1.573,1.573h4.717v6.29h-4.717c-0.87,0.001-1.573,0.705-1.573,1.573c0,0.869,0.703,1.573,1.573,1.573h4.717
			v1.572c0,0.868,0.703,1.573,1.573,1.573S25.2,81.56,25.2,80.692V20.936c0-2.293,2.424-4.718,4.717-4.718h66.047
			c2.293,0,4.718,2.425,4.718,4.718v66.046c0,2.293-2.425,4.718-4.718,4.718H29.918c-2.293,0-4.718-2.425-4.718-4.718
			c0-0.868-0.703-1.573-1.573-1.573c-0.869,0-1.572,0.705-1.572,1.573c0,4.041,3.82,7.862,7.862,7.862h7.862v4.718
			c0,0.869,0.703,1.573,1.573,1.573c0.869,0,1.572-0.705,1.572-1.573v-4.718h6.29v4.718c0,0.869,0.703,1.573,1.572,1.573
			c0.87,0,1.573-0.705,1.573-1.573v-4.718h6.29v4.718c0,0.869,0.703,1.573,1.573,1.573c0.869,0,1.572-0.705,1.572-1.573v-4.718h6.29
			v4.718c0,0.869,0.703,1.573,1.572,1.573c0.87,0,1.573-0.705,1.573-1.573v-4.718h6.29v4.718c0,0.869,0.703,1.573,1.573,1.573
			c0.869,0,1.572-0.705,1.572-1.573v-4.718h6.291v4.718c0,0.869,0.703,1.573,1.572,1.573c0.87,0,1.573-0.705,1.573-1.573v-4.718
			h7.864c4.041,0,7.862-3.822,7.862-7.862V79.12h4.718c0.869,0,1.573-0.705,1.573-1.573c0-0.867-0.704-1.572-1.573-1.572h-4.718
			v-6.291h4.718c0.869,0,1.573-0.705,1.573-1.572c0-0.868-0.704-1.573-1.573-1.573h-4.718v-6.29h4.718
			c0.869,0,1.573-0.705,1.573-1.573s-0.704-1.572-1.573-1.572h-4.718v-6.291h4.718c0.869,0,1.573-0.705,1.573-1.572
			c0-0.868-0.704-1.573-1.573-1.573h-4.718v-6.29h4.718L108.544,41.379L108.544,41.379z"/>
		<path d="M33.109,25.654c0.868,0,1.573-0.705,1.573-1.573c0-0.869-0.705-1.573-1.573-1.573h-0.017
			c-0.867,0-1.563,0.705-1.563,1.573C31.53,24.949,32.242,25.654,33.109,25.654L33.109,25.654z"/>
		<path d="M33.109,85.409c0.868,0,1.573-0.705,1.573-1.572c0-0.869-0.705-1.573-1.573-1.573h-0.017
			c-0.867,0-1.563,0.705-1.563,1.573C31.53,84.704,32.242,85.409,33.109,85.409L33.109,85.409z"/>
		<path d="M92.866,85.409c0.868,0,1.573-0.705,1.573-1.572c0-0.869-0.705-1.573-1.573-1.573h-0.017
			c-0.867,0-1.563,0.705-1.563,1.573C91.286,84.704,91.996,85.409,92.866,85.409L92.866,85.409z"/>
		<path d="M92.866,25.654c0.868,0,1.573-0.705,1.573-1.573c0-0.869-0.705-1.573-1.573-1.573h-0.017
			c-0.867,0-1.563,0.705-1.563,1.573C91.286,24.949,91.996,25.654,92.866,25.654L92.866,25.654z"/>
	</g>
</g>
<g id="Layer_3">
	<path d="M108.52,87.598L108.52,87.598c-0.001,0-0.001-0.001-0.002-0.001c-3.952-2.284-5.31-7.356-3.026-11.308
		c1.579-2.739,1.997-5.926,1.18-8.976c-0.489-1.817-1.378-3.453-2.602-4.817c3.317-3.735,3.981-9.339,1.414-13.798
		c-1.101-1.912-1.393-4.138-0.822-6.269c0.574-2.138,1.945-3.924,3.859-5.029c0.849-0.49,1.139-1.575,0.649-2.423
		c-0.49-0.849-1.575-1.139-2.423-0.649c-0.003,0.001-0.005,0.003-0.008,0.004c-3.952,2.277-9.02,0.917-11.3-3.033
		c-1.581-2.738-4.131-4.695-7.181-5.51c-1.815-0.486-3.677-0.535-5.477-0.157c-1.574-4.741-6.094-8.119-11.238-8.125
		c-2.209-0.003-4.285-0.864-5.843-2.423c-1.563-1.567-2.424-3.646-2.424-5.854c0-0.98-0.794-1.774-1.774-1.774
		S59.728,8.25,59.728,9.23l0,0l0,0l0,0c0,2.21-0.861,4.289-2.424,5.852s-3.642,2.424-5.854,2.424h-0.001
		c-3.159,0.001-6.129,1.231-8.364,3.465c-1.329,1.332-2.301,2.92-2.871,4.664c-4.893-1.007-10.077,1.219-12.655,5.671
		c-1.107,1.911-2.89,3.278-5.02,3.848c-2.139,0.572-4.37,0.279-6.283-0.826c0,0,0,0-0.001,0c-0.848-0.489-1.933-0.199-2.423,0.65
		c-0.49,0.849-0.199,1.933,0.649,2.423c0.002,0.001,0.004,0.002,0.006,0.004c1.912,1.105,3.279,2.888,3.85,5.022
		c0.572,2.136,0.279,4.367-0.826,6.281c-1.581,2.736-2.001,5.923-1.182,8.975c0.489,1.818,1.378,3.455,2.601,4.82
		c-3.316,3.734-3.98,9.337-1.415,13.795c1.1,1.913,1.392,4.142,0.823,6.272c-0.576,2.138-1.946,3.923-3.859,5.027
		c-0.849,0.49-1.139,1.575-0.649,2.423c0.49,0.849,1.575,1.139,2.423,0.649l0.003-0.001c1.914-1.104,4.144-1.397,6.279-0.825
		c2.136,0.572,3.921,1.942,5.027,3.857c1.578,2.734,4.128,4.691,7.181,5.511c1.018,0.272,2.05,0.407,3.078,0.407
		c0.806,0,1.608-0.086,2.398-0.252c1.575,4.739,6.096,8.117,11.241,8.125c2.205,0.002,4.279,0.863,5.84,2.423
		c1.563,1.565,2.424,3.645,2.424,5.855c0,0.98,0.794,1.774,1.774,1.774s1.774-0.794,1.774-1.774c0-4.566,3.71-8.282,8.28-8.279
		c3.157,0,6.125-1.23,8.36-3.463c1.329-1.329,2.302-2.917,2.874-4.665c4.894,1.007,10.079-1.219,12.656-5.67
		c1.107-1.911,2.89-3.278,5.02-3.848c2.137-0.571,4.368-0.278,6.281,0.827c0.849,0.49,1.933,0.199,2.423-0.649
		C109.659,89.173,109.368,88.088,108.52,87.598z M84.339,73.637c1.92-0.493,3.777-1.242,5.511-2.242l11.312-6.531
		c0.058-0.033,0.114-0.069,0.171-0.103c0.904,0.975,1.558,2.156,1.913,3.472c0.572,2.134,0.279,4.365-0.826,6.282
		c-1.612,2.789-1.95,5.969-1.202,8.866L84.339,73.637z M69.745,88.423c-2.789-1.61-5.109-3.926-6.707-6.699
		c-0.103-0.178-0.236-0.331-0.387-0.46c6.06-0.367,11.353-3.617,14.524-8.394c0.036,0.199,0.102,0.393,0.206,0.573
		c1.602,2.771,2.449,5.937,2.448,9.158l0.001,11.646L69.745,88.423z M19.756,56.763c-0.573-2.135-0.279-4.365,0.828-6.28
		c1.559-2.702,1.985-5.843,1.208-8.86l16.87,9.739c-1.92,0.493-3.777,1.241-5.51,2.242l-11.314,6.532
		c-0.058,0.033-0.113,0.068-0.17,0.102C20.764,59.262,20.11,58.081,19.756,56.763z M53.256,36.573
		c2.789,1.61,5.109,3.927,6.708,6.701c0.103,0.178,0.236,0.332,0.389,0.461c-6.06,0.367-11.354,3.617-14.525,8.395
		c-0.036-0.2-0.102-0.394-0.207-0.575c-1.603-2.772-2.45-5.939-2.449-9.16V30.751L53.256,36.573z M78.933,70.781
		c-0.005,0-0.011,0-0.016,0c-0.206,0-0.406,0.039-0.595,0.106c1.265-2.527,1.982-5.375,1.982-8.388s-0.716-5.86-1.981-8.387
		c0.187,0.067,0.386,0.105,0.591,0.105c0.007,0,0.01,0,0.015,0c3.199,0,6.361,0.85,9.146,2.458L98.16,62.5l-10.084,5.822
		C85.288,69.931,82.128,70.781,78.933,70.781z M79.83,30.751v11.644c0,3.22-0.847,6.388-2.451,9.161
		c-0.103,0.179-0.17,0.372-0.206,0.569c-3.172-4.775-8.465-8.023-14.524-8.39c0.152-0.13,0.286-0.283,0.389-0.462
		c1.598-2.772,3.917-5.089,6.708-6.7L79.83,30.751z M46.246,62.5c0-8.412,6.844-15.255,15.255-15.255S76.756,54.088,76.756,62.5
		s-6.844,15.255-15.255,15.255S46.246,70.911,46.246,62.5z M34.926,56.676c2.787-1.609,5.948-2.459,9.143-2.459
		c0.005,0,0.01,0,0.015,0c0.207,0,0.408-0.039,0.597-0.107c-1.266,2.528-1.983,5.376-1.983,8.39c0,3.011,0.716,5.857,1.98,8.383
		c-0.188-0.067-0.386-0.105-0.591-0.105c-0.004,0-0.01,0-0.015,0c-3.199,0-6.361-0.85-9.146-2.458L24.841,62.5L34.926,56.676z
		 M43.17,94.248l0.001-11.647c0-3.22,0.847-6.388,2.451-9.161c0.103-0.179,0.17-0.372,0.206-0.569
		c3.171,4.777,8.464,8.025,14.524,8.393c-0.152,0.13-0.284,0.283-0.387,0.46c-1.598,2.772-3.917,5.089-6.708,6.701L43.17,94.248z
		 M102.409,50.468c1.822,3.167,1.323,7.155-1.08,9.769c-0.056-0.034-0.111-0.068-0.168-0.101l-11.312-6.532
		c-1.733-1.001-3.591-1.749-5.512-2.242l16.87-9.74C100.431,44.634,100.855,47.771,102.409,50.468z M87.34,29.216
		c2.135,0.57,3.92,1.94,5.026,3.856c1.61,2.789,4.194,4.671,7.076,5.472l-16.87,9.74c0.532-1.908,0.806-3.891,0.806-5.89V29.335
		c0-0.067-0.002-0.134-0.003-0.201C84.674,28.839,86.024,28.864,87.34,29.216z M71.537,21.055c3.652,0.004,6.854,2.43,7.916,5.82
		c-0.057,0.031-0.114,0.062-0.17,0.094L67.971,33.5c-1.734,1.001-3.31,2.235-4.697,3.651V17.674
		C65.493,19.849,68.421,21.05,71.537,21.055z M51.448,21.055C51.448,21.055,51.449,21.055,51.448,21.055
		c3.121,0,6.054-1.202,8.278-3.383v19.479c-1.388-1.416-2.964-2.651-4.697-3.651l-11.307-6.528
		c-0.059-0.034-0.119-0.066-0.179-0.099c0.392-1.272,1.087-2.429,2.05-3.393C47.156,21.917,49.236,21.056,51.448,21.055z
		 M30.628,33.085c1.829-3.16,5.529-4.721,8.998-3.946c-0.001,0.065-0.003,0.13-0.003,0.195v13.061c0,1.999,0.273,3.981,0.805,5.889
		L23.566,38.55C26.56,37.717,29.066,35.782,30.628,33.085z M20.591,74.528c-1.822-3.166-1.322-7.152,1.079-9.766
		c0.056,0.034,0.111,0.069,0.168,0.101l11.313,6.529c1.733,1.001,3.591,1.749,5.512,2.242l-16.87,9.74
		C22.567,80.363,22.143,77.226,20.591,74.528z M35.662,95.784c-2.136-0.574-3.921-1.944-5.026-3.858
		c-1.56-2.702-4.068-4.642-7.07-5.477l16.864-9.736c-0.532,1.908-0.806,3.891-0.806,5.889l-0.001,13.062
		c0,0.067,0.002,0.134,0.003,0.201C38.327,96.159,36.977,96.135,35.662,95.784z M51.465,103.943
		c-3.652-0.006-6.855-2.431-7.919-5.819c0.057-0.031,0.114-0.061,0.17-0.094l11.314-6.532c1.733-1.001,3.31-2.235,4.697-3.651
		l-0.001,19.478C57.505,105.147,54.577,103.946,51.465,103.943z M71.553,103.942c-0.001,0-0.002,0-0.003,0
		c-3.22,0-6.142,1.297-8.276,3.393l0.001-19.488c1.387,1.416,2.963,2.65,4.696,3.65l11.315,6.534
		c0.057,0.032,0.115,0.063,0.172,0.095c-0.393,1.273-1.089,2.43-2.053,3.393C75.841,103.081,73.763,103.942,71.553,103.942z
		 M92.374,91.913c-1.83,3.162-5.535,4.722-8.999,3.947c0.001-0.065,0.004-0.13,0.004-0.196l-0.001-13.063
		c0-1.998-0.273-3.98-0.804-5.887l16.861,9.735C96.44,87.282,93.936,89.217,92.374,91.913z"/>
	<path d="M61.501,51.635c-5.991,0-10.865,4.874-10.865,10.865s4.874,10.865,10.865,10.865S72.366,68.491,72.366,62.5
		S67.492,51.635,61.501,51.635z M61.501,69.816c-4.034,0-7.317-3.282-7.317-7.317s3.282-7.317,7.317-7.317s7.317,3.282,7.317,7.317
		S65.536,69.816,61.501,69.816z"/>
	<circle cx="89.066" cy="88.289" r="1.774"/>
	<circle cx="73.564" cy="84.143" r="1.774"/>
	<circle cx="70.34" cy="98.134" r="1.774"/>
	<circle cx="52.661" cy="99.198" r="1.774"/>
	<circle cx="49.44" cy="84.143" r="1.774"/>
	<circle cx="35.371" cy="88.292" r="1.774"/>
	<circle cx="25.432" cy="73.631" r="1.774"/>
	<circle cx="36.726" cy="62.753" r="1.774"/>
	<circle cx="26.144" cy="52.615" r="1.774"/>
	<circle cx="33.937" cy="36.711" r="1.774"/>
	<circle cx="49.44" cy="40.86" r="1.774"/>
	<circle cx="52.661" cy="26.866" r="1.774"/>
	<circle cx="70.34" cy="25.802" r="1.774"/>
	<circle cx="73.564" cy="40.86" r="1.774"/>
	<circle cx="87.631" cy="36.711" r="1.774"/>
	<circle cx="97.57" cy="51.369" r="1.774"/>
	<circle cx="86.275" cy="62.247" r="1.774"/>
	<circle cx="96.86" cy="72.385" r="1.774"/>
	<g>
	</g>
	<g>
	</g>
	<g>
	</g>
	<g>
	</g>
	<g>
	</g>
	<g>
	</g>
	<g>
	</g>
	<g>
	</g>
	<g>
	</g>
	<g>
	</g>
	<g>
	</g>
</g>
</svg>
