<?xml version="1.0" encoding="iso-8859-1"?>
<!-- Generator: Adobe Illustrator 17.0.0, SVG Export Plug-In . SVG Version: 6.00 Build 0)  -->
<!DOCTYPE svg PUBLIC "-//W3C//DTD SVG 1.1//EN" "http://www.w3.org/Graphics/SVG/1.1/DTD/svg11.dtd">
<svg version="1.1" xmlns="http://www.w3.org/2000/svg" xmlns:xlink="http://www.w3.org/1999/xlink" x="0px" y="0px"
	 width="94.291px" height="78.583px" viewBox="0 0 94.291 78.583" style="enable-background:new 0 0 94.291 78.583;"
	 xml:space="preserve">
<g id="Layer_4">
	<path d="M63.687,13.432c-0.22-0.21-0.488-0.371-0.784-0.466L45.368,7.46c-7.013-2.206-11.576,1.639-12.807,2.87
		c-0.716,0.716-1.268,1.48-1.544,2.137l-7.816,18.378c-0.447,1.05-0.296,2.452,0.401,3.845c1.014,1.993,2.826,3.434,4.983,3.95
		c2.423,0.584,4.932-0.21,6.898-2.164c0.515-0.515,0.953-1.089,1.212-1.566l2.623-4.875c0.43-0.801,1.06-1.641,1.717-2.301
		c2.262-2.25,3.329-1.221,3.779-0.782c3.93,3.788,24.531,24.485,24.531,24.485c0.735,0.723,0.581,2.118-0.335,3.034
		c-0.916,0.906-2.299,1.067-3.034,0.332l-5.791-5.782c-0.745-0.743-1.947-0.743-2.692,0c-0.752,0.745-0.752,1.947,0,2.692
		l5.784,5.791c0.733,0.735,0.581,2.118-0.335,3.034c-0.916,0.916-2.308,1.07-3.034,0.335l-5.791-5.782
		c-0.745-0.745-1.947-0.745-2.692,0c-0.745,0.743-0.745,1.944,0,2.699l5.782,5.782c0.735,0.735,0.574,2.118-0.332,3.034
		c-0.916,0.916-2.301,1.07-3.036,0.335l-5.791-5.782c-0.743-0.745-1.947-0.745-2.689,0c-0.745,0.745-0.745,1.957,0,2.692
		l5.782,5.791c0.735,0.733,0.581,2.128-0.335,3.034c-0.916,0.916-2.308,1.067-3.034,0.342l-7.052-7.049
		c1.011-1.517,0.735-3.713-0.762-5.21c-1.671-1.671-4.238-1.822-5.725-0.335c1.488-1.488,1.336-4.065-0.335-5.733
		c-1.678-1.671-4.245-1.825-5.733-0.335c1.488-1.49,1.336-4.055-0.344-5.735c-1.671-1.668-4.236-1.822-5.735-0.335
		c1.5-1.488,1.346-4.055-0.332-5.733c-1.566-1.566-3.903-1.786-5.42-0.591L4.92,30.55c-0.745-0.745-1.957-0.745-2.699,0
		c-0.735,0.743-0.735,1.957,0,2.699l11.383,11.383l-3.368,3.378c-1.49,1.48-1.346,4.055,0.335,5.725
		c1.678,1.678,4.235,1.832,5.733,0.335c-1.497,1.497-1.346,4.065,0.335,5.733c1.668,1.68,4.245,1.832,5.735,0.344
		c-1.49,1.488-1.336,4.055,0.332,5.726c1.681,1.678,4.248,1.832,5.735,0.342c-1.488,1.49-1.336,4.055,0.335,5.735
		c1.678,1.671,4.245,1.822,5.733,0.335l3.569-3.569l6.996,7.003c2.233,2.233,6.009,2.071,8.434-0.344
		c1.172-1.172,1.803-2.68,1.888-4.17c1.488-0.086,2.997-0.716,4.179-1.898c1.175-1.175,1.803-2.682,1.898-4.17
		c1.49-0.085,2.987-0.725,4.17-1.898c1.185-1.185,1.815-2.682,1.9-4.17c1.488-0.088,2.995-0.716,4.169-1.9
		c2.423-2.423,2.567-6.202,0.332-8.434l-2.948-2.948l12.118-12.118c0.745-0.745,0.745-1.947,0-2.689L63.687,13.432z"/>
	<path d="M63.687,13.432"/>
	<path d="M92.398,17.697L76.958,2.259c-1.497-1.49-3.911-1.49-5.401,0L66.157,7.65c-1.488,1.497-1.488,3.911,0,5.401l15.45,15.437
		c1.488,1.488,3.901,1.488,5.391,0l5.401-5.391C93.886,21.61,93.886,19.184,92.398,17.697L92.398,17.697z M84.296,25.56
		c-1.727,0-3.139-1.395-3.139-3.129c0-1.729,1.412-3.131,3.139-3.131c1.727,0,3.129,1.402,3.129,3.131
		C87.425,24.158,86.023,25.56,84.296,25.56L84.296,25.56z M84.296,25.56"/>
</g>
<g id="Layer_5" style="display:none;">
</g>
</svg>
