<?xml version="1.0" encoding="iso-8859-1"?>
<!-- Generator: Adobe Illustrator 17.0.0, SVG Export Plug-In . SVG Version: 6.00 Build 0)  -->
<!DOCTYPE svg PUBLIC "-//W3C//DTD SVG 1.1//EN" "http://www.w3.org/Graphics/SVG/1.1/DTD/svg11.dtd">
<svg version="1.1" id="Layer_2" xmlns="http://www.w3.org/2000/svg" xmlns:xlink="http://www.w3.org/1999/xlink" x="0px" y="0px"
	 width="94.291px" height="78.583px" viewBox="0 0 94.291 78.583" style="enable-background:new 0 0 94.291 78.583;"
	 xml:space="preserve">
<path d="M29.154,39.314c-1.962,0-3.817,1.855-3.817,3.817v12.724c0,1.962,1.855,3.817,3.817,3.817h2.545
	c1.962,0,3.817-1.855,3.817-3.817c0-0.572,0.701-1.273,1.271-1.273h5.091c0.57,0,1.272,0.701,1.272,1.273
	c0,1.962,1.856,3.817,3.817,3.817h11.687c0.527,1.479,1.926,2.545,3.582,2.545c2.104,0,3.817-1.713,3.817-3.817
	c0-2.104-1.713-3.817-3.817-3.817c-1.656,0-3.055,1.066-3.582,2.545H46.966c-0.57,0-1.272-0.701-1.272-1.273
	c0-1.962-1.855-3.817-3.817-3.817h-5.091c-1.962,0-3.816,1.855-3.816,3.817c0,0.571-0.702,1.273-1.273,1.273h-2.545
	c-0.57,0-1.273-0.701-1.273-1.273V43.132c0-0.571,0.702-1.273,1.273-1.273c1.962,0,3.817-1.855,3.817-3.817
	s-1.856-3.817-3.817-3.817c-0.57,0-1.273-0.701-1.273-1.272V22.773c0-0.572,0.702-1.273,1.273-1.273h33.082
	c0.57,0,1.273,0.701,1.273,1.273v20.358c0,0.571-0.703,1.272-1.273,1.272h-4.052c-0.383-1.078-1.23-1.926-2.31-2.311v-8.102
	c1.477-0.528,2.545-1.926,2.545-3.583c0-2.104-1.712-3.817-3.817-3.817c-2.104,0-3.817,1.713-3.817,3.817
	c0,1.657,1.068,3.055,2.546,3.582v8.103c-1.079,0.384-1.926,1.233-2.31,2.311h-9.142c-0.57,0-1.273-0.701-1.273-1.272V39.08
	c1.477-0.528,2.545-1.926,2.545-3.583c0-2.105-1.713-3.817-3.817-3.817c-2.105,0-3.817,1.712-3.817,3.817
	c0,1.656,1.067,3.055,2.545,3.582v4.053c0,1.962,1.855,3.817,3.817,3.817h9.142c0.526,1.478,1.925,2.545,3.582,2.545
	c1.657,0,3.055-1.066,3.582-2.545h4.052c1.962,0,3.817-1.856,3.817-3.817V22.773c0-1.962-1.855-3.817-3.817-3.817H29.154
	c-1.962,0-3.817,1.855-3.817,3.817v10.179c0,1.962,1.855,3.817,3.817,3.817c0.57,0,1.272,0.701,1.272,1.272
	C30.426,38.613,29.724,39.314,29.154,39.314L29.154,39.314z M62.236,57.128c0.702,0,1.272,0.571,1.272,1.272
	c0,0.701-0.57,1.273-1.272,1.273c-0.703,0-1.273-0.571-1.273-1.273C60.963,57.699,61.533,57.128,62.236,57.128L62.236,57.128z
	 M39.333,36.769c-0.703,0-1.273-0.571-1.273-1.272c0-0.701,0.57-1.273,1.273-1.273c0.702,0,1.272,0.572,1.272,1.273
	C40.605,36.198,40.035,36.769,39.333,36.769L39.333,36.769z M54.601,29.135c0.702,0,1.273,0.571,1.273,1.272
	c0,0.701-0.57,1.273-1.273,1.273c-0.702,0-1.272-0.572-1.272-1.273C53.329,29.707,53.899,29.135,54.601,29.135L54.601,29.135z
	 M54.601,46.949c-0.702,0-1.272-0.572-1.272-1.273c0-0.701,0.57-1.273,1.272-1.273c0.702,0,1.273,0.572,1.273,1.273
	C55.874,46.377,55.304,46.949,54.601,46.949L54.601,46.949z"/>
<path d="M82.594,29.135c0.703,0,1.273-0.57,1.273-1.273c0-0.702-0.57-1.272-1.273-1.272h-3.817v-5.09h3.817
	c0.703,0,1.273-0.57,1.273-1.272c0-0.702-0.57-1.273-1.273-1.273h-3.817v-6.362c0-3.271-3.092-6.362-6.362-6.362h-6.362V2.416
	c0-0.702-0.569-1.273-1.273-1.273c-0.703,0-1.272,0.57-1.272,1.273v3.817h-5.09V2.416c0-0.702-0.569-1.273-1.272-1.273
	c-0.704,0-1.273,0.57-1.273,1.273v3.817h-5.089V2.416c0-0.702-0.569-1.273-1.273-1.273c-0.703,0-1.272,0.57-1.272,1.273v3.817h-5.09
	V2.416c0-0.702-0.569-1.273-1.272-1.273c-0.704,0-1.273,0.57-1.273,1.273v3.817h-5.089V2.416c0-0.702-0.569-1.273-1.273-1.273
	c-0.703,0-1.273,0.57-1.273,1.273v3.817h-5.089V2.416c-0.001-0.702-0.569-1.273-1.274-1.273c-0.703,0-1.272,0.57-1.272,1.273v3.817
	h-6.362c-3.271,0-6.362,3.092-6.362,6.362v6.362H8.796c-0.704,0-1.273,0.57-1.273,1.272c0,0.703,0.569,1.273,1.273,1.273h3.817
	v5.089H8.796c-0.704,0.001-1.273,0.571-1.273,1.273c0,0.703,0.569,1.273,1.273,1.273h3.817v5.089H8.796
	c-0.704,0-1.273,0.57-1.273,1.273c0,0.703,0.569,1.272,1.273,1.272h3.817v5.09H8.796c-0.704,0-1.273,0.57-1.273,1.273
	c0,0.702,0.569,1.272,1.273,1.272h3.817v5.09H8.796c-0.704,0-1.273,0.57-1.273,1.272c0,0.703,0.569,1.273,1.273,1.273h3.817v5.089
	H8.796c-0.704,0.001-1.273,0.571-1.273,1.273c0,0.703,0.569,1.273,1.273,1.273h3.817v1.272c0,0.702,0.569,1.273,1.273,1.273
	s1.273-0.57,1.273-1.273v-48.35c0-1.855,1.962-3.817,3.817-3.817h53.441c1.855,0,3.817,1.962,3.817,3.817v53.44
	c0,1.855-1.962,3.817-3.817,3.817h-53.44c-1.855,0-3.817-1.962-3.817-3.817c0-0.702-0.569-1.273-1.273-1.273
	c-0.703,0-1.272,0.57-1.272,1.273c0,3.27,3.091,6.362,6.362,6.362h6.362v3.817c0,0.703,0.569,1.273,1.273,1.273
	c0.703,0,1.272-0.57,1.272-1.273v-3.817h5.09v3.817c0,0.703,0.569,1.273,1.272,1.273c0.704,0,1.273-0.57,1.273-1.273v-3.817h5.089
	v3.817c0,0.703,0.569,1.273,1.273,1.273c0.703,0,1.272-0.57,1.272-1.273v-3.817h5.09v3.817c0,0.703,0.569,1.273,1.272,1.273
	c0.704,0,1.273-0.57,1.273-1.273v-3.817h5.089v3.817c0,0.703,0.569,1.273,1.273,1.273c0.703,0,1.272-0.57,1.272-1.273v-3.817h5.09
	v3.817c0,0.703,0.569,1.273,1.272,1.273c0.704,0,1.273-0.57,1.273-1.273v-3.817h6.363c3.27,0,6.362-3.092,6.362-6.362v-6.362h3.817
	c0.703,0,1.273-0.57,1.273-1.273c0-0.702-0.57-1.272-1.273-1.272h-3.817v-5.09h3.817c0.703,0,1.273-0.57,1.273-1.272
	c0-0.702-0.57-1.273-1.273-1.273h-3.817v-5.089h3.817c0.703,0,1.273-0.57,1.273-1.273s-0.57-1.272-1.273-1.272h-3.817v-5.09h3.817
	c0.703,0,1.273-0.57,1.273-1.272c0-0.702-0.57-1.273-1.273-1.273h-3.817v-5.089h3.817L82.594,29.135L82.594,29.135z"/>
<path d="M21.557,16.412c0.702,0,1.273-0.57,1.273-1.273c0-0.703-0.57-1.273-1.273-1.273h-0.014c-0.701,0-1.265,0.57-1.265,1.273
	C20.279,15.842,20.855,16.412,21.557,16.412L21.557,16.412z"/>
<path d="M21.557,64.762c0.702,0,1.273-0.57,1.273-1.272c0-0.703-0.57-1.273-1.273-1.273h-0.014c-0.701,0-1.265,0.57-1.265,1.273
	C20.279,64.192,20.855,64.762,21.557,64.762L21.557,64.762z"/>
<path d="M69.908,64.762c0.702,0,1.273-0.57,1.273-1.272c0-0.703-0.57-1.273-1.273-1.273h-0.014c-0.701,0-1.265,0.57-1.265,1.273
	C68.63,64.192,69.205,64.762,69.908,64.762L69.908,64.762z"/>
<path d="M69.908,16.412c0.702,0,1.273-0.57,1.273-1.273c0-0.703-0.57-1.273-1.273-1.273h-0.014c-0.701,0-1.265,0.57-1.265,1.273
	C68.63,15.842,69.205,16.412,69.908,16.412L69.908,16.412z"/>
<g>
</g>
<g>
</g>
<g>
</g>
<g>
</g>
<g>
</g>
<g>
</g>
<g>
</g>
<g>
</g>
<g>
</g>
<g>
</g>
<g>
</g>
</svg>
