<?xml version="1.0" encoding="iso-8859-1"?>
<!-- Generator: Adobe Illustrator 17.0.0, SVG Export Plug-In . SVG Version: 6.00 Build 0)  -->
<!DOCTYPE svg PUBLIC "-//W3C//DTD SVG 1.1//EN" "http://www.w3.org/Graphics/SVG/1.1/DTD/svg11.dtd">
<svg version="1.1" id="Layer_3" xmlns="http://www.w3.org/2000/svg" xmlns:xlink="http://www.w3.org/1999/xlink" x="0px" y="0px"
	 width="94.291px" height="78.583px" viewBox="0 0 94.291 78.583" style="enable-background:new 0 0 94.291 78.583;"
	 xml:space="preserve">
<path d="M79.879,57.276L79.879,57.276c-0.001,0-0.001-0.001-0.001-0.001c-2.781-1.607-3.736-5.176-2.129-7.957
	c1.111-1.927,1.405-4.17,0.83-6.316c-0.344-1.279-0.97-2.43-1.831-3.389c2.334-2.628,2.801-6.571,0.995-9.709
	c-0.775-1.345-0.98-2.912-0.578-4.411c0.404-1.504,1.369-2.761,2.715-3.539c0.597-0.345,0.801-1.108,0.457-1.705
	c-0.345-0.597-1.108-0.801-1.705-0.457c-0.002,0.001-0.004,0.002-0.006,0.003c-2.781,1.602-6.347,0.645-7.951-2.134
	c-1.112-1.927-2.907-3.304-5.053-3.877c-1.277-0.342-2.587-0.376-3.854-0.11c-1.108-3.336-4.288-5.713-7.908-5.717
	c-1.554-0.002-3.015-0.608-4.111-1.705c-1.1-1.103-1.706-2.565-1.706-4.119c0-0.69-0.559-1.248-1.248-1.248
	c-0.69,0-1.248,0.559-1.248,1.248l0,0l0,0l0,0c0,1.555-0.606,3.018-1.706,4.118s-2.563,1.706-4.119,1.706h-0.001
	c-2.223,0.001-4.313,0.866-5.885,2.438c-0.935,0.937-1.619,2.055-2.02,3.282c-3.443-0.709-7.091,0.858-8.905,3.99
	c-0.779,1.345-2.034,2.307-3.532,2.708c-1.505,0.402-3.075,0.196-4.421-0.581c0,0,0,0-0.001,0c-0.597-0.344-1.36-0.14-1.705,0.457
	c-0.345,0.597-0.14,1.36,0.457,1.705c0.001,0.001,0.003,0.001,0.004,0.003c1.345,0.778,2.307,2.032,2.709,3.534
	c0.402,1.503,0.196,3.073-0.581,4.42c-1.112,1.925-1.408,4.168-0.832,6.315c0.344,1.279,0.97,2.431,1.83,3.392
	c-2.333,2.627-2.801,6.57-0.996,9.707c0.774,1.346,0.979,2.914,0.579,4.413c-0.405,1.504-1.369,2.76-2.715,3.537
	c-0.597,0.345-0.801,1.108-0.457,1.705c0.345,0.597,1.108,0.801,1.705,0.457l0.002-0.001c1.347-0.777,2.916-0.983,4.418-0.581
	c1.503,0.402,2.759,1.366,3.537,2.714c1.11,1.924,2.905,3.301,5.053,3.878c0.716,0.191,1.442,0.286,2.166,0.286
	c0.567,0,1.131-0.061,1.687-0.177c1.108,3.335,4.289,5.711,7.91,5.717c1.552,0.001,3.011,0.607,4.109,1.705
	c1.1,1.101,1.706,2.565,1.706,4.12c0,0.69,0.559,1.248,1.248,1.248s1.248-0.559,1.248-1.248c0-3.213,2.611-5.828,5.826-5.825
	c2.221,0,4.31-0.865,5.882-2.437c0.935-0.935,1.62-2.053,2.022-3.283c3.444,0.709,7.092-0.858,8.905-3.99
	c0.779-1.345,2.034-2.307,3.532-2.708c1.504-0.402,3.074-0.196,4.42,0.582c0.597,0.345,1.36,0.14,1.705-0.457
	C80.68,58.384,80.476,57.621,79.879,57.276z M62.864,47.452c1.351-0.347,2.658-0.874,3.878-1.578l7.96-4.595
	c0.041-0.023,0.08-0.049,0.12-0.072c0.636,0.686,1.096,1.517,1.346,2.443c0.402,1.502,0.196,3.071-0.581,4.42
	c-1.134,1.962-1.372,4.2-0.846,6.239L62.864,47.452z M52.595,57.856c-1.962-1.133-3.595-2.763-4.719-4.714
	c-0.072-0.125-0.166-0.233-0.272-0.324c4.264-0.258,7.988-2.545,10.22-5.906c0.025,0.14,0.072,0.277,0.145,0.403
	c1.127,1.95,1.723,4.178,1.723,6.444l0.001,8.195L52.595,57.856z M17.421,35.579c-0.403-1.502-0.196-3.071,0.583-4.419
	c1.097-1.901,1.397-4.111,0.85-6.234l11.87,6.853c-1.351,0.347-2.658,0.873-3.877,1.578l-7.961,4.596
	c-0.041,0.023-0.08,0.048-0.12,0.072C18.13,37.337,17.67,36.506,17.421,35.579z M40.993,21.372c1.962,1.133,3.595,2.763,4.72,4.715
	c0.072,0.125,0.166,0.234,0.274,0.324c-4.264,0.258-7.989,2.545-10.22,5.907c-0.025-0.141-0.072-0.277-0.146-0.405
	c-1.128-1.951-1.724-4.179-1.723-6.445v-8.193L40.993,21.372z M59.06,45.443c-0.004,0-0.008,0-0.011,0
	c-0.145,0-0.286,0.027-0.419,0.075c0.89-1.778,1.395-3.782,1.395-5.902c0-2.12-0.504-4.123-1.394-5.901
	c0.132,0.047,0.272,0.074,0.416,0.074c0.005,0,0.007,0,0.011,0c2.251,0,4.476,0.598,6.436,1.73l7.096,4.099l-7.096,4.097
	C63.532,44.844,61.308,45.443,59.06,45.443z M59.691,17.276v8.193c0,2.266-0.596,4.495-1.725,6.446
	c-0.072,0.126-0.12,0.262-0.145,0.4c-2.232-3.36-5.956-5.645-10.22-5.904c0.107-0.091,0.201-0.199,0.274-0.325
	c1.124-1.95,2.756-3.581,4.72-4.714L59.691,17.276z M36.06,39.616c0-5.919,4.816-10.734,10.734-10.734s10.734,4.815,10.734,10.734
	S52.713,50.35,46.794,50.35S36.06,45.534,36.06,39.616z M28.095,35.518c1.961-1.132,4.185-1.73,6.433-1.73c0.004,0,0.007,0,0.011,0
	c0.146,0,0.287-0.027,0.42-0.075c-0.891,1.779-1.395,3.783-1.395,5.904c0,2.119,0.504,4.121,1.393,5.899
	c-0.132-0.047-0.272-0.074-0.416-0.074c-0.003,0-0.007,0-0.011,0c-2.251,0-4.476-0.598-6.436-1.73l-7.096-4.095L28.095,35.518z
	 M33.896,61.955l0.001-8.195c0-2.266,0.596-4.495,1.725-6.446c0.072-0.126,0.12-0.262,0.145-0.4
	c2.231,3.361,5.956,5.647,10.22,5.906c-0.107,0.091-0.2,0.199-0.272,0.324c-1.124,1.951-2.756,3.581-4.72,4.715L33.896,61.955z
	 M75.579,31.149c1.282,2.228,0.931,5.035-0.76,6.874c-0.039-0.024-0.078-0.048-0.118-0.071l-7.96-4.596
	c-1.219-0.704-2.527-1.231-3.878-1.578l11.87-6.853C74.187,27.044,74.486,29.252,75.579,31.149z M64.976,16.196
	c1.502,0.401,2.758,1.365,3.537,2.713c1.133,1.962,2.951,3.287,4.979,3.85l-11.87,6.853c0.374-1.343,0.567-2.738,0.567-4.144v-9.189
	c0-0.047-0.001-0.094-0.002-0.141C63.1,15.93,64.05,15.948,64.976,16.196z M53.856,10.453c2.57,0.003,4.823,1.71,5.57,4.095
	c-0.04,0.022-0.08,0.044-0.12,0.066l-7.96,4.595c-1.22,0.704-2.329,1.573-3.305,2.569V8.074
	C49.603,9.605,51.664,10.45,53.856,10.453z M39.721,10.453C39.721,10.453,39.721,10.453,39.721,10.453
	c2.196,0,4.26-0.846,5.825-2.38v13.706c-0.977-0.996-2.086-1.865-3.305-2.569l-7.956-4.593c-0.042-0.024-0.084-0.046-0.126-0.07
	c0.276-0.895,0.765-1.709,1.442-2.387C36.701,11.06,38.164,10.454,39.721,10.453z M25.071,18.918
	c1.287-2.224,3.89-3.322,6.331-2.777c-0.001,0.046-0.002,0.091-0.002,0.137v9.19c0,1.407,0.192,2.801,0.566,4.144l-11.865-6.849
	C22.208,22.177,23.972,20.816,25.071,18.918z M18.008,48.079c-1.282-2.228-0.93-5.032,0.759-6.872
	c0.039,0.024,0.078,0.049,0.118,0.071l7.96,4.594c1.219,0.704,2.527,1.231,3.878,1.578l-11.87,6.853
	C19.399,52.185,19.1,49.978,18.008,48.079z M28.613,63.036c-1.503-0.404-2.759-1.368-3.537-2.715
	c-1.098-1.901-2.862-3.266-4.975-3.854l11.866-6.851c-0.374,1.343-0.567,2.738-0.567,4.144L31.4,62.951
	c0,0.047,0.001,0.094,0.002,0.141C30.488,63.3,29.538,63.283,28.613,63.036z M39.733,68.777c-2.57-0.004-4.823-1.711-5.572-4.094
	c0.04-0.022,0.08-0.043,0.12-0.066l7.961-4.596c1.219-0.704,2.329-1.573,3.305-2.569l-0.001,13.706
	C43.983,69.624,41.922,68.779,39.733,68.777z M53.867,68.776c-0.001,0-0.001,0-0.002,0c-2.266,0-4.322,0.913-5.823,2.387
	l0.001-13.713c0.976,0.996,2.085,1.865,3.304,2.568l7.962,4.598c0.04,0.023,0.081,0.044,0.121,0.067
	c-0.277,0.896-0.766,1.71-1.445,2.387C56.885,68.17,55.422,68.776,53.867,68.776z M68.518,60.312
	c-1.288,2.225-3.895,3.323-6.332,2.777c0.001-0.046,0.003-0.091,0.003-0.138l-0.001-9.192c0-1.406-0.192-2.801-0.566-4.142
	l11.864,6.85C71.379,57.053,69.617,58.415,68.518,60.312z"/>
<path d="M46.794,31.971c-4.216,0-7.645,3.43-7.645,7.645s3.43,7.645,7.645,7.645s7.645-3.43,7.645-7.645S51.01,31.971,46.794,31.971
	z M46.794,44.764c-2.839,0-5.149-2.309-5.149-5.149c0-2.839,2.309-5.149,5.149-5.149c2.839,0,5.149,2.309,5.149,5.149
	S49.634,44.764,46.794,44.764z"/>
<circle cx="66.19" cy="57.762" r="1.248"/>
<circle cx="55.282" cy="54.845" r="1.248"/>
<circle cx="53.014" cy="64.689" r="1.248"/>
<circle cx="40.574" cy="65.438" r="1.248"/>
<circle cx="38.308" cy="54.845" r="1.248"/>
<circle cx="28.408" cy="57.764" r="1.248"/>
<circle cx="21.415" cy="47.448" r="1.248"/>
<circle cx="29.362" cy="39.794" r="1.248"/>
<circle cx="21.916" cy="32.66" r="1.248"/>
<circle cx="27.399" cy="21.469" r="1.248"/>
<circle cx="38.308" cy="24.389" r="1.248"/>
<circle cx="40.574" cy="14.542" r="1.248"/>
<circle cx="53.014" cy="13.793" r="1.248"/>
<circle cx="55.282" cy="24.389" r="1.248"/>
<circle cx="65.181" cy="21.469" r="1.248"/>
<circle cx="72.174" cy="31.783" r="1.248"/>
<circle cx="64.226" cy="39.438" r="1.248"/>
<circle cx="71.674" cy="46.571" r="1.248"/>
<g>
</g>
<g>
</g>
<g>
</g>
<g>
</g>
<g>
</g>
<g>
</g>
<g>
</g>
<g>
</g>
<g>
</g>
<g>
</g>
<g>
</g>
</svg>
